<?xml version="1.0" encoding="UTF-8" standalone="no"?>
<svg
   xmlns:dc="http://purl.org/dc/elements/1.1/"
   xmlns:cc="http://creativecommons.org/ns#"
   xmlns:rdf="http://www.w3.org/1999/02/22-rdf-syntax-ns#"
   xmlns:svg="http://www.w3.org/2000/svg"
   xmlns="http://www.w3.org/2000/svg"
   xmlns:sodipodi="http://sodipodi.sourceforge.net/DTD/sodipodi-0.dtd"
   xmlns:inkscape="http://www.inkscape.org/namespaces/inkscape"
   version="1.1"
   x="0px"
   y="0px"
   width="32px"
   height="32px"
   viewBox="0 0 32 32"
   enable-background="new 0 0 32 32"
   xml:space="preserve"
   id="svg2"
   inkscape:version="0.48.4 r9939"
   sodipodi:docname="attachment_add.svg"><defs
     id="defs3005" /><sodipodi:namedview
     pagecolor="#ffffff"
     bordercolor="#666666"
     borderopacity="1"
     objecttolerance="10"
     gridtolerance="10"
     guidetolerance="10"
     inkscape:pageopacity="0"
     inkscape:pageshadow="2"
     inkscape:window-width="640"
     inkscape:window-height="480"
     id="namedview3003"
     showgrid="false"
     inkscape:zoom="7.375"
     inkscape:cx="16"
     inkscape:cy="16"
     inkscape:window-x="53"
     inkscape:window-y="24"
     inkscape:window-maximized="0"
     inkscape:current-layer="svg2" /><metadata
     id="metadata2991"><rdf:RDF><cc:Work
         rdf:about=""><dc:format>image/svg+xml</dc:format><dc:type
           rdf:resource="http://purl.org/dc/dcmitype/StillImage" /><dc:title>PICOL Icon</dc:title><dc:date>2009-03-15</dc:date><dc:creator><cc:Agent><dc:title>Melih Bilgil</dc:title></cc:Agent></dc:creator><dc:rights><cc:Agent><dc:title>Creative Commons BY-SA</dc:title></cc:Agent></dc:rights><dc:publisher><cc:Agent><dc:title>PICOL - Pictorial Communication Language</dc:title></cc:Agent></dc:publisher><dc:identifier>http://blog.picol.org</dc:identifier><dc:source>http://blog.picol.org</dc:source><dc:language>en</dc:language><dc:subject><rdf:Bag><rdf:li>PICOL</rdf:li><rdf:li>icon</rdf:li><rdf:li>icons</rdf:li><rdf:li>sign</rdf:li><rdf:li>GUI</rdf:li><rdf:li>vector</rdf:li><rdf:li>interface</rdf:li></rdf:Bag></dc:subject><dc:description>This is one icon out of all PICOL icons</dc:description><dc:contributor><cc:Agent><dc:title>Melih Bilgil (www.lonja.de), Christopher Adjei (www.boffer.net)</dc:title></cc:Agent></dc:contributor><cc:license
           rdf:resource="http://creativecommons.org/licenses/by-sa/3.0/" /></cc:Work><cc:License
         rdf:about="http://creativecommons.org/licenses/by-sa/3.0/"><cc:permits
           rdf:resource="http://creativecommons.org/ns#Reproduction" /><cc:permits
           rdf:resource="http://creativecommons.org/ns#Distribution" /><cc:requires
           rdf:resource="http://creativecommons.org/ns#Notice" /><cc:requires
           rdf:resource="http://creativecommons.org/ns#Attribution" /><cc:permits
           rdf:resource="http://creativecommons.org/ns#DerivativeWorks" /><cc:requires
           rdf:resource="http://creativecommons.org/ns#ShareAlike" /></cc:License></rdf:RDF></metadata><g
     id="background"><rect
       fill="none"
       width="32"
       height="32"
       id="rect2994" /></g><path
     id="polygon3001"
     style=""
     d="m 22,22 -4,0 0,2 4,0 0,4 2,0 0,-4 4,0 0,-2 -4,0 0,-4 -2,0 z m 6.651,-6 h 0.348 c 1.355,0.035 2.314,-0.807 2.645,-1.553 0.362,-0.74 0.35,-1.362 0.354,-1.446 L 32,9.001 C 31.993,8.917 32.006,8.294 31.644,7.553 31.314,6.807 30.355,5.967 28.999,6.002 26.999,6 7,6 7,6.001 6.917,6.005 5.294,5.993 3.552,6.856 1.805,7.687 -0.034,9.647 0,13 -0.035,16.353 1.804,18.316 3.551,19.144 5.294,20.008 6.917,19.996 7,20 h 7.523 C 14.19,20.939 14,21.946 14,23 c 0,4.971 4.027,8.998 9,9 4.971,-0.002 8.998,-4.029 9,-9 -0.001,-2.83 -1.309,-5.351 -3.349,-7 z M 7,18.002 c 0,0 -0.282,0.002 -0.772,-0.082 C 5.486,17.801 4.387,17.481 3.54,16.768 2.697,16.047 2.015,15 1.999,13 2.034,10.354 3.194,9.315 4.448,8.644 5.078,8.329 5.736,8.162 6.228,8.082 6.717,8 7,8.008 7,8 c 0,0 20,0 22,0 0.646,0.035 0.686,0.195 0.856,0.449 0.063,0.13 0.107,0.286 0.126,0.404 0.02,0.117 0.011,0.148 0.018,0.148 l -0.002,4 c 0.002,0 0.004,0.031 -0.017,0.148 -0.027,0.179 -0.113,0.435 -0.239,0.578 -0.134,0.139 -0.243,0.258 -0.743,0.274 C 28.296,14.001 25.861,14 23.002,14 23.001,14 23.001,14 23,14 22.999,14 22.999,14 22.998,14 17.728,14 11.012,14 11,14.001 10.353,13.966 10.314,13.806 10.145,13.554 10.079,13.422 10.036,13.266 10.018,13.149 9.996,13.032 10.007,13 9.999,13 c 0.035,-0.646 0.195,-0.685 0.449,-0.854 0.13,-0.066 0.287,-0.109 0.404,-0.128 C 10.969,11.999 11,12.008 11,12.002 h 16 v -2 H 11 C 10.917,10.006 10.293,9.994 9.554,10.356 8.806,10.686 7.965,11.648 8,13 8.004,13.084 7.992,13.706 8.354,14.446 8.684,15.193 9.646,16.035 11,16 c 0,0 2.88,0 6.348,0 -0.707,0.571 -1.326,1.245 -1.833,2.002 H 7 z M 23,29.883 C 19.199,29.874 16.124,26.799 16.115,23 16.124,19.199 19.199,16.124 23,16.116 26.799,16.124 29.874,19.199 29.883,23 29.874,26.799 26.799,29.874 23,29.883 z" /></svg>