<?xml version="1.0" encoding="UTF-8" standalone="no"?>
<svg
   xmlns:dc="http://purl.org/dc/elements/1.1/"
   xmlns:cc="http://creativecommons.org/ns#"
   xmlns:rdf="http://www.w3.org/1999/02/22-rdf-syntax-ns#"
   xmlns:svg="http://www.w3.org/2000/svg"
   xmlns="http://www.w3.org/2000/svg"
   xmlns:sodipodi="http://sodipodi.sourceforge.net/DTD/sodipodi-0.dtd"
   xmlns:inkscape="http://www.inkscape.org/namespaces/inkscape"
   version="1.1"
   x="0px"
   y="0px"
   width="32px"
   height="32px"
   viewBox="0 0 32 32"
   enable-background="new 0 0 32 32"
   xml:space="preserve"
   id="svg2"
   inkscape:version="0.48.4 r9939"
   sodipodi:docname="avatar_information.svg"><defs
     id="defs3005" /><sodipodi:namedview
     pagecolor="#ffffff"
     bordercolor="#666666"
     borderopacity="1"
     objecttolerance="10"
     gridtolerance="10"
     guidetolerance="10"
     inkscape:pageopacity="0"
     inkscape:pageshadow="2"
     inkscape:window-width="640"
     inkscape:window-height="480"
     id="namedview3003"
     showgrid="false"
     inkscape:zoom="7.375"
     inkscape:cx="16"
     inkscape:cy="16"
     inkscape:window-x="53"
     inkscape:window-y="24"
     inkscape:window-maximized="0"
     inkscape:current-layer="svg2" /><metadata
     id="metadata2995"><rdf:RDF><cc:Work
         rdf:about=""><dc:format>image/svg+xml</dc:format><dc:type
           rdf:resource="http://purl.org/dc/dcmitype/StillImage" /><dc:title>PICOL Icon</dc:title><dc:date>2009-03-15</dc:date><dc:creator><cc:Agent><dc:title>Melih Bilgil</dc:title></cc:Agent></dc:creator><dc:rights><cc:Agent><dc:title>Creative Commons BY-SA</dc:title></cc:Agent></dc:rights><dc:publisher><cc:Agent><dc:title>PICOL - Pictorial Communication Language</dc:title></cc:Agent></dc:publisher><dc:identifier>http://blog.picol.org</dc:identifier><dc:source>http://blog.picol.org</dc:source><dc:language>en</dc:language><dc:subject><rdf:Bag><rdf:li>PICOL</rdf:li><rdf:li>icon</rdf:li><rdf:li>icons</rdf:li><rdf:li>sign</rdf:li><rdf:li>GUI</rdf:li><rdf:li>vector</rdf:li><rdf:li>interface</rdf:li></rdf:Bag></dc:subject><dc:description>This is one icon out of all PICOL icons</dc:description><dc:contributor><cc:Agent><dc:title>Melih Bilgil (www.lonja.de), Christopher Adjei (www.boffer.net)</dc:title></cc:Agent></dc:contributor><cc:license
           rdf:resource="http://creativecommons.org/licenses/by-sa/3.0/" /></cc:Work><cc:License
         rdf:about="http://creativecommons.org/licenses/by-sa/3.0/"><cc:permits
           rdf:resource="http://creativecommons.org/ns#Reproduction" /><cc:permits
           rdf:resource="http://creativecommons.org/ns#Distribution" /><cc:requires
           rdf:resource="http://creativecommons.org/ns#Notice" /><cc:requires
           rdf:resource="http://creativecommons.org/ns#Attribution" /><cc:permits
           rdf:resource="http://creativecommons.org/ns#DerivativeWorks" /><cc:requires
           rdf:resource="http://creativecommons.org/ns#ShareAlike" /></cc:License></rdf:RDF></metadata><g
     id="background" /><path
     id="path3001"
     d="m 22,28 h 2 v -6 h -2 v 6 z m 0,-10 v 2 h 2 v -2 h -2 z m 1,-8 c 0,0 -1,-2 -3,-2 -2,0 -3,2 -3,2 0,0 2,0 3,0 1,0 3,0 3,0 z M 12,8 c -2,0 -3,2 -3,2 0,0 2,0 3,0 1,0 3,0 3,0 0,0 -1,-2 -3,-2 z M 31.439,19.9 C 30.422,17.131 28.09,15.008 25.196,14.281 25.702,12.088 25.998,9.758 26,7.403 26,5.614 25.508,3.932 24.651,2.489 L 24.177,1.692 23.348,2.102 C 23.347,2.103 22.815,2.365 21.989,2.704 20.523,1.047 18.386,0 16,0 13.613,0 11.473,1.048 10.007,2.707 9.18,2.368 8.647,2.105 8.645,2.107 L 7.813,1.697 7.342,2.493 C 6.488,3.937 6,5.618 6,7.403 6.002,11.15 6.707,14.865 7.906,18 4.455,18 4,18 4,18 4,18 0,18.167 0,22 0,24 0,32 0,32 H 32 V 22 c 0,0 -0.006,-1.068 -0.561,-2.1 z M 14.598,19.795 C 14.217,20.792 14,21.869 14,23 c 0,0.121 0.014,0.24 0.018,0.36 C 12.775,22.589 11.542,21.122 10.531,19.057 8.983,15.925 7.997,11.648 7.999,7.403 c 0,-1.104 0.234,-2.148 0.655,-3.098 1.498,0.656 4.615,1.876 7.345,1.897 2.728,-0.023 5.846,-1.246 7.343,-1.902 0.423,0.95 0.657,1.996 0.657,3.102 0.002,2.257 -0.291,4.51 -0.785,6.607 C 23.143,14.009 23.072,14 23,14 20.347,14 17.97,15.154 16.323,16.979 16.217,16.984 16.102,17 16,17 c -2,0 -5,-1 -5,-1 0,0 0.77,3.007 3.598,3.795 z M 23,29.883 C 19.199,29.874 16.124,26.799 16.115,23 16.124,19.199 19.199,16.124 23,16.115 26.799,16.124 29.874,19.199 29.883,23 29.874,26.799 26.799,29.874 23,29.883 z" /></svg>