<?xml version="1.0" encoding="UTF-8" standalone="no"?>
<svg
   xmlns:dc="http://purl.org/dc/elements/1.1/"
   xmlns:cc="http://creativecommons.org/ns#"
   xmlns:rdf="http://www.w3.org/1999/02/22-rdf-syntax-ns#"
   xmlns:svg="http://www.w3.org/2000/svg"
   xmlns="http://www.w3.org/2000/svg"
   xmlns:sodipodi="http://sodipodi.sourceforge.net/DTD/sodipodi-0.dtd"
   xmlns:inkscape="http://www.inkscape.org/namespaces/inkscape"
   version="1.1"
   x="0px"
   y="0px"
   width="32px"
   height="32px"
   viewBox="0 0 32 32"
   enable-background="new 0 0 32 32"
   xml:space="preserve"
   id="svg2"
   >

<metadata><rdf:RDF>

   <cc:Work rdf:about="">
   <dc:format>image/svg+xml</dc:format>
   <dc:type rdf:resource="http://purl.org/dc/dcmitype/StillImage" />
   <dc:title>PICOL Icon</dc:title>
   <dc:date>2011-08-08</dc:date>
   <dc:creator><cc:Agent><dc:title>Melih Bilgil</dc:title></cc:Agent></dc:creator>
   <dc:rights><cc:Agent><dc:title>Creative Commons BY-SA</dc:title></cc:Agent></dc:rights>
   <dc:publisher><cc:Agent><dc:title>PICOL - Pictorial Communication Language</dc:title></cc:Agent></dc:publisher>
   <dc:identifier>http://blog.picol.org</dc:identifier>
   <dc:source>http://blog.picol.org</dc:source>
   <dc:language>en</dc:language>
   <dc:subject>
     <rdf:Bag>
       <rdf:li>PICOL</rdf:li>
       <rdf:li>icon</rdf:li>
       <rdf:li>icons</rdf:li>
       <rdf:li>sign</rdf:li>
       <rdf:li>GUI</rdf:li>
       <rdf:li>vector</rdf:li>
       <rdf:li>interface</rdf:li>
     </rdf:Bag>
   </dc:subject>
   <dc:description>This is one icon out of all PICOL icons</dc:description>
   <dc:contributor>
       <cc:Agent><dc:title>Melih Bilgil (www.lonja.de)</dc:title></cc:Agent></dc:contributor>
   <cc:license rdf:resource="http://creativecommons.org/licenses/by-sa/3.0/" /></cc:Work>
   <cc:License rdf:about="http://creativecommons.org/licenses/by-sa/3.0/">
       <cc:permits rdf:resource="http://creativecommons.org/ns#Reproduction" />
       <cc:permits rdf:resource="http://creativecommons.org/ns#Distribution" />
       <cc:requires rdf:resource="http://creativecommons.org/ns#Notice" />
       <cc:requires rdf:resource="http://creativecommons.org/ns#Attribution" />
       <cc:permits rdf:resource="http://creativecommons.org/ns#DerivativeWorks" />
       <cc:requires rdf:resource="http://creativecommons.org/ns#ShareAlike" /></cc:License>

   </rdf:RDF>
</metadata>

<g id="background">
	<rect fill="none" width="32" height="32"/>
</g>
<g id="baseball">
	<path d="M16,0C7.178,0,0,7.178,0,16s7.178,16,16,16s16-7.178,16-16S24.822,0,16,0z M2,16c0-3.704,1.456-7.067,3.813-9.574
		c0.169,0.27,0.366,0.616,0.572,1.051L5.354,8.065l0.981,1.738l0.771-0.438c0.047,0.155,0.093,0.32,0.139,0.486l-0.919,0.252
		l0.519,1.927l0.825-0.225c0.025,0.15,0.052,0.293,0.075,0.449l-0.918,0.074l0.154,1.991l0.96-0.077
		C7.956,14.489,7.969,14.741,7.978,15H7v2h0.978c-0.009,0.259-0.021,0.51-0.037,0.757l-0.959-0.078l-0.159,1.992l0.921,0.075
		c-0.022,0.156-0.05,0.3-0.075,0.45l-0.827-0.228l-0.524,1.928l0.926,0.255c-0.046,0.168-0.092,0.334-0.141,0.491L6.328,22.2
		l-0.986,1.738l1.039,0.592c-0.205,0.432-0.4,0.774-0.568,1.044C3.456,23.067,2,19.704,2,16z M7.302,26.951
		c0.239-0.349,0.525-0.814,0.824-1.428l0.992,0.564l0.987-1.735l-1.224-0.697c0.102-0.306,0.201-0.629,0.295-0.973l1.219,0.335
		l0.524-1.927l-1.312-0.361c0.047-0.267,0.091-0.537,0.131-0.821l1.184,0.097l0.158-1.991L9.934,17.92
		c0.019-0.299,0.032-0.605,0.042-0.92H11v-2H9.977c-0.01-0.313-0.023-0.62-0.042-0.917l1.147-0.092l-0.155-1.993l-1.188,0.096
		c-0.039-0.283-0.083-0.553-0.13-0.818l1.318-0.36l-0.521-1.93L9.177,9.322C9.083,8.98,8.985,8.658,8.884,8.354l1.235-0.702
		l-0.985-1.74L8.13,6.483c-0.3-0.616-0.588-1.085-0.828-1.434C9.694,3.146,12.713,2,16,2c3.286,0,6.306,1.146,8.697,3.049
		c-0.24,0.349-0.527,0.818-0.828,1.435l-1.004-0.571l-0.984,1.74l1.234,0.702c-0.102,0.304-0.199,0.626-0.293,0.968l-1.229-0.336
		l-0.521,1.93l1.318,0.36c-0.047,0.266-0.091,0.535-0.13,0.818l-1.188-0.096l-0.155,1.993l1.146,0.092
		c-0.019,0.298-0.031,0.604-0.042,0.917h-1.023v2h1.023c0.011,0.314,0.023,0.621,0.042,0.92l-1.146,0.094l0.158,1.991l1.184-0.097
		c0.04,0.284,0.084,0.555,0.131,0.821l-1.312,0.361l0.523,1.927l1.22-0.335c0.095,0.344,0.192,0.667,0.295,0.973l-1.224,0.697
		l0.986,1.735l0.992-0.564c0.299,0.613,0.585,1.08,0.824,1.428C22.306,28.854,19.286,30,16,30C12.713,30,9.694,28.854,7.302,26.951z
		 M26.187,25.574c-0.169-0.269-0.364-0.612-0.569-1.044l1.039-0.592L25.671,22.2l-0.775,0.442c-0.048-0.157-0.095-0.323-0.141-0.491
		l0.927-0.255l-0.524-1.928l-0.827,0.228c-0.024-0.15-0.053-0.294-0.074-0.45l0.921-0.075l-0.159-1.992l-0.959,0.078
		C24.043,17.51,24.03,17.259,24.021,17h0.978v-2h-0.978c0.009-0.259,0.021-0.511,0.037-0.758l0.961,0.077l0.154-1.991l-0.918-0.074
		c0.021-0.156,0.049-0.299,0.074-0.449l0.824,0.225l0.52-1.927l-0.92-0.252c0.046-0.166,0.092-0.331,0.139-0.486l0.771,0.438
		l0.981-1.738l-1.031-0.587c0.206-0.436,0.402-0.782,0.572-1.052C28.544,8.932,30,12.296,30,16S28.544,23.067,26.187,25.574z"/>
</g>
</svg>
