<?xml version="1.0" encoding="UTF-8" standalone="no"?>
<!-- Generator: Adobe Illustrator 16.0.1, SVG Export Plug-In . SVG Version: 6.00 Build 0)  -->

<svg
   xmlns:dc="http://purl.org/dc/elements/1.1/"
   xmlns:cc="http://creativecommons.org/ns#"
   xmlns:rdf="http://www.w3.org/1999/02/22-rdf-syntax-ns#"
   xmlns:svg="http://www.w3.org/2000/svg"
   xmlns="http://www.w3.org/2000/svg"
   xmlns:sodipodi="http://sodipodi.sourceforge.net/DTD/sodipodi-0.dtd"
   xmlns:inkscape="http://www.inkscape.org/namespaces/inkscape"
   version="1.1"
   x="0px"
   y="0px"
   width="32px"
   height="32px"
   viewBox="0 0 32 32"
   enable-background="new 0 0 32 32"
   xml:space="preserve"
   id="svg2"
   inkscape:version="0.48.4 r9939"
   sodipodi:docname="basketball.svg"><metadata
     id="metadata247"><rdf:RDF><cc:Work
         rdf:about=""><dc:format>image/svg+xml</dc:format><dc:type
           rdf:resource="http://purl.org/dc/dcmitype/StillImage" /></cc:Work></rdf:RDF></metadata><defs
     id="defs245" /><sodipodi:namedview
     pagecolor="#ffffff"
     bordercolor="#666666"
     borderopacity="1"
     objecttolerance="10"
     gridtolerance="10"
     guidetolerance="10"
     inkscape:pageopacity="0"
     inkscape:pageshadow="2"
     inkscape:window-width="1867"
     inkscape:window-height="1056"
     id="namedview243"
     showgrid="false"
     inkscape:zoom="14.75"
     inkscape:cx="33.732817"
     inkscape:cy="14.886903"
     inkscape:window-x="53"
     inkscape:window-y="24"
     inkscape:window-maximized="1"
     inkscape:current-layer="svg2" /><path
     d="M 4.6875,4.6875 C 1.6655,7.7085 0,11.726 0,16 0,20.273 1.6655,24.2915 4.6875,27.3125 7.7085,30.3355 11.726,32 16,32 20.273,32 24.2915,30.3355 27.3125,27.3125 30.3355,24.2915 32,20.273 32,16 32,11.726 30.3355,7.7085 27.3125,4.6875 24.2915,1.6655 20.273,0 16,0 11.726,0 7.7085,1.6655 4.6875,4.6875 z M 15,2.0625 15,9.6875 C 13.628,9.5605 12.31725,9.119 11.28125,8.375 L 6.96875,5.3125 C 9.23675,3.3945 12.032,2.2705 15,2.0625 z m 2,0 c 2.941,0.207 5.71175,1.3005 7.96875,3.1875 l -4.0625,2.9375 C 19.79725,8.9955 18.421,9.48525 17,9.65625 z m 9.40625,4.59375 C 28.49425,8.98025 29.7185,11.89 29.9375,15 L 17,15 17,11.65625 c 1.835,-0.182 3.63675,-0.78375 5.09375,-1.84375 z M 5.53125,6.71875 10.125,10 c 1.379,0.989 3.091,1.51825 4.875,1.65625 L 15,15 2.0625,15 C 2.2785,11.917 3.47625,9.03175 5.53125,6.71875 z M 2.0625,17 15,17 l 0,3.375 c -1.697,0.227 -3.3345,0.8285 -4.6875,1.8125 L 5.75,25.5 C 3.567,23.149 2.2855,20.187 2.0625,17 z M 17,17 29.9375,17 c -0.211,3.006 -1.3495,5.80975 -3.3125,8.09375 L 22.28125,22 C 20.79925,20.938 18.924,20.36125 17,20.28125 z m 0,5.3125 c 1.514,0.076 2.99,0.4975 4.125,1.3125 l 4.0625,2.90625 C 22.8885,28.54225 20.045,29.7235 17,29.9375 z m -2,0.09375 0,7.53125 C 12.139,29.7365 9.44075,28.70125 7.21875,26.90625 l 4.25,-3.09375 C 12.47575,23.0805 13.719,22.61525 15,22.40625 z"
     id="path3261"
     inkscape:connector-curvature="0"
     sodipodi:nodetypes="cscscsccccccccccccccccccccccccccccccccccccccccccccccc" /></svg>