<?xml version="1.0" encoding="UTF-8" standalone="no"?>
<svg
   xmlns:dc="http://purl.org/dc/elements/1.1/"
   xmlns:cc="http://creativecommons.org/ns#"
   xmlns:rdf="http://www.w3.org/1999/02/22-rdf-syntax-ns#"
   xmlns:svg="http://www.w3.org/2000/svg"
   xmlns="http://www.w3.org/2000/svg"
   xmlns:sodipodi="http://sodipodi.sourceforge.net/DTD/sodipodi-0.dtd"
   xmlns:inkscape="http://www.inkscape.org/namespaces/inkscape"
   version="1.1"
   x="0px"
   y="0px"
   width="32px"
   height="32px"
   viewBox="0 0 32 32"
   enable-background="new 0 0 32 32"
   xml:space="preserve"
   id="svg2"
   inkscape:version="0.48.4 r9939"
   sodipodi:docname="book_image_run.svg"><defs
     id="defs3233" /><sodipodi:namedview
     pagecolor="#ffffff"
     bordercolor="#666666"
     borderopacity="1"
     objecttolerance="10"
     gridtolerance="10"
     guidetolerance="10"
     inkscape:pageopacity="0"
     inkscape:pageshadow="2"
     inkscape:window-width="640"
     inkscape:window-height="480"
     id="namedview3231"
     showgrid="false"
     inkscape:zoom="7.375"
     inkscape:cx="16"
     inkscape:cy="16"
     inkscape:window-x="53"
     inkscape:window-y="24"
     inkscape:window-maximized="0"
     inkscape:current-layer="svg2" /><metadata
     id="metadata3221"><rdf:RDF><cc:Work
         rdf:about=""><dc:format>image/svg+xml</dc:format><dc:type
           rdf:resource="http://purl.org/dc/dcmitype/StillImage" /><dc:title>PICOL Icon</dc:title><dc:date>2009-03-15</dc:date><dc:creator><cc:Agent><dc:title>Melih Bilgil</dc:title></cc:Agent></dc:creator><dc:rights><cc:Agent><dc:title>Creative Commons BY-SA</dc:title></cc:Agent></dc:rights><dc:publisher><cc:Agent><dc:title>PICOL - Pictorial Communication Language</dc:title></cc:Agent></dc:publisher><dc:identifier>http://blog.picol.org</dc:identifier><dc:source>http://blog.picol.org</dc:source><dc:language>en</dc:language><dc:subject><rdf:Bag><rdf:li>PICOL</rdf:li><rdf:li>icon</rdf:li><rdf:li>icons</rdf:li><rdf:li>sign</rdf:li><rdf:li>GUI</rdf:li><rdf:li>vector</rdf:li><rdf:li>interface</rdf:li></rdf:Bag></dc:subject><dc:description>This is one icon out of all PICOL icons</dc:description><dc:contributor><cc:Agent><dc:title>Melih Bilgil (www.lonja.de), Christopher Adjei (www.boffer.net)</dc:title></cc:Agent></dc:contributor><cc:license
           rdf:resource="http://creativecommons.org/licenses/by-sa/3.0/" /></cc:Work><cc:License
         rdf:about="http://creativecommons.org/licenses/by-sa/3.0/"><cc:permits
           rdf:resource="http://creativecommons.org/ns#Reproduction" /><cc:permits
           rdf:resource="http://creativecommons.org/ns#Distribution" /><cc:requires
           rdf:resource="http://creativecommons.org/ns#Notice" /><cc:requires
           rdf:resource="http://creativecommons.org/ns#Attribution" /><cc:permits
           rdf:resource="http://creativecommons.org/ns#DerivativeWorks" /><cc:requires
           rdf:resource="http://creativecommons.org/ns#ShareAlike" /></cc:License></rdf:RDF></metadata><g
     id="background"><rect
       fill="none"
       width="32"
       height="32"
       id="rect3224" /></g><path
     id="polygon3229"
     style=""
     d="m 26,23 -4,-4 0,8 z m 6,0.001 c 0,-3.917 -2.506,-7.24 -5.998,-8.477 V 4 h -2 V 1.999 h 2 V 0 h -23 C 2.918,0.004 2.295,-0.008 1.556,0.354 0.809,0.686 -0.033,1.645 0.001,3 c 0,0.006 0.001,0.012 0.001,0.018 V 30 c 0,2 2,2 2,2 H 23.083 L 23.076,31.996 C 28.013,31.955 32,27.946 32,23.001 z M 2.853,3.981 C 2.676,3.955 2.418,3.869 2.273,3.743 2.136,3.609 2.017,3.5 2.002,3 2.035,2.354 2.195,2.314 2.449,2.144 2.578,2.079 2.737,2.037 2.852,2.019 2.97,1.997 3,2.005 3.002,1.999 h 19 V 4 h -19 C 3,4 2.97,4.002 2.853,3.981 z M 4.002,30 V 6 h 20 v 8.06 C 23.673,14.023 23.339,14 23,14 22.664,14 22.333,14.021 22.007,14.058 22.005,14.039 22,14.017 22,14 22,12 20,12 20,12 l -2,0 -2,-2 h -4 l -2,2 H 8 c 0,0 -2,0 -2,2 v 6 c 0,2 2,2 2,2 0,0 3.027,0 6.059,0 C 14.022,22.329 14,22.662 14,23.001 14,25.83 15.307,28.351 17.348,30 H 4.002 z M 14.543,19.945 C 14.367,19.978 14.186,20 14,20 c -1.658,0 -3,-1.342 -3,-3 0,-1.656 1.342,-3 3,-3 1.438,0 2.64,1.016 2.931,2.368 -1.063,0.974 -1.889,2.195 -2.388,3.577 z M 23,30 c -3.865,-0.008 -6.994,-3.135 -7,-6.999 0.006,-3.865 3.135,-6.995 7,-7 3.865,0.006 6.992,3.135 7,7 -0.008,3.864 -3.135,6.991 -7,6.999 z" /></svg>