<?xml version="1.0" encoding="UTF-8" standalone="no"?>
<svg
   xmlns:dc="http://purl.org/dc/elements/1.1/"
   xmlns:cc="http://creativecommons.org/ns#"
   xmlns:rdf="http://www.w3.org/1999/02/22-rdf-syntax-ns#"
   xmlns:svg="http://www.w3.org/2000/svg"
   xmlns="http://www.w3.org/2000/svg"
   xmlns:sodipodi="http://sodipodi.sourceforge.net/DTD/sodipodi-0.dtd"
   xmlns:inkscape="http://www.inkscape.org/namespaces/inkscape"
   version="1.1"
   x="0px"
   y="0px"
   width="32px"
   height="32px"
   viewBox="0 0 32 32"
   enable-background="new 0 0 32 32"
   xml:space="preserve"
   id="svg2"
   inkscape:version="0.48.4 r9939"
   sodipodi:docname="buy.svg"><defs
     id="defs3128" /><sodipodi:namedview
     pagecolor="#ffffff"
     bordercolor="#666666"
     borderopacity="1"
     objecttolerance="10"
     gridtolerance="10"
     guidetolerance="10"
     inkscape:pageopacity="0"
     inkscape:pageshadow="2"
     inkscape:window-width="640"
     inkscape:window-height="480"
     id="namedview3126"
     showgrid="false"
     inkscape:zoom="10.429825"
     inkscape:cx="14.848284"
     inkscape:cy="14.729141"
     inkscape:window-x="53"
     inkscape:window-y="24"
     inkscape:window-maximized="0"
     inkscape:current-layer="svg2" /><metadata
     id="metadata3104"><rdf:RDF><cc:Work
         rdf:about=""><dc:format>image/svg+xml</dc:format><dc:type
           rdf:resource="http://purl.org/dc/dcmitype/StillImage" /><dc:title>PICOL Icon</dc:title><dc:date>2009-03-15</dc:date><dc:creator><cc:Agent><dc:title>Melih Bilgil</dc:title></cc:Agent></dc:creator><dc:rights><cc:Agent><dc:title>Creative Commons BY-SA</dc:title></cc:Agent></dc:rights><dc:publisher><cc:Agent><dc:title>PICOL - Pictorial Communication Language</dc:title></cc:Agent></dc:publisher><dc:identifier>http://blog.picol.org</dc:identifier><dc:source>http://blog.picol.org</dc:source><dc:language>en</dc:language><dc:subject><rdf:Bag><rdf:li>PICOL</rdf:li><rdf:li>icon</rdf:li><rdf:li>icons</rdf:li><rdf:li>sign</rdf:li><rdf:li>GUI</rdf:li><rdf:li>vector</rdf:li><rdf:li>interface</rdf:li></rdf:Bag></dc:subject><dc:description>This is one icon out of all PICOL icons</dc:description><dc:contributor><cc:Agent><dc:title>Melih Bilgil (www.lonja.de), Christopher Adjei (www.boffer.net)</dc:title></cc:Agent></dc:contributor><cc:license
           rdf:resource="http://creativecommons.org/licenses/by-sa/3.0/" /></cc:Work><cc:License
         rdf:about="http://creativecommons.org/licenses/by-sa/3.0/"><cc:permits
           rdf:resource="http://creativecommons.org/ns#Reproduction" /><cc:permits
           rdf:resource="http://creativecommons.org/ns#Distribution" /><cc:requires
           rdf:resource="http://creativecommons.org/ns#Notice" /><cc:requires
           rdf:resource="http://creativecommons.org/ns#Attribution" /><cc:permits
           rdf:resource="http://creativecommons.org/ns#DerivativeWorks" /><cc:requires
           rdf:resource="http://creativecommons.org/ns#ShareAlike" /></cc:License></rdf:RDF></metadata><g
     id="background"><rect
       fill="none"
       width="32"
       height="32"
       id="rect3107" /></g><path
     id="circle3124"
     style=""
     d="m 24,26 c 0,1.656854 -1.343146,3 -3,3 -1.656854,0 -3,-1.343146 -3,-3 0,-1.656854 1.343146,-3 3,-3 1.656854,0 3,1.343146 3,3 z M 16,0 C 16,0 15.301014,-0.02550696 14.5625,0.34375 13.823986,0.71300696 13,1.6666667 13,3 L 5,3 C 5,3 4.3010139,2.974493 3.5625,3.34375 2.8239861,3.713007 2,4.6666667 2,6 2,6.4569147 2.1883214,6.7985724 2.34375,7.15625 2.0689675,7.1943724 1.9639452,7.1430274 1.5625,7.34375 0.82398608,7.713007 0,8.6666667 0,10 0,10.882066 0.38870792,11.513037 0.84375,12 0.38870792,12.486963 0,13.117934 0,14 c 0,1.333333 0.82398608,2.286993 1.5625,2.65625 0.4014452,0.200723 0.5064675,0.149378 0.78125,0.1875 C 2.1883214,17.201428 2,17.543085 2,18 2,19.333333 2.8239861,20.286993 3.5625,20.65625 4.3010139,21.025507 5,21 5,21 l 7,0 c 0,1.656854 1.343146,3 3,3 1.656854,0 3,-1.343146 3,-3 l 6,0 c 1.722222,0 2.8705,-0.65025 3.4375,-1.40625 C 27.649762,19.310735 27.571762,19.258784 27.65625,19 L 32,19 l 0,-2 -5,0 -1,0 0,1 c 0,0 -0.0045,0.16225 -0.1875,0.40625 C 25.6295,18.65025 25.277778,19 24,19 l -6.78125,0 C 16.669676,18.391094 15.884468,18 15,18 c -0.884468,0 -1.669676,0.391094 -2.21875,1 L 5,19 C 5,19 4.6989861,18.974493 4.4375,18.84375 4.1760139,18.713007 4,18.666667 4,18 4,17.333333 4.1760139,17.286993 4.4375,17.15625 4.6989861,17.025507 5,17 5,17 l 8,0 1,0 0,-2 -1,0 -8,0 -2,0 C 3,15 2.6989861,14.974493 2.4375,14.84375 2.1760139,14.713007 2,14.666667 2,14 2,13.333333 2.1760139,13.286993 2.4375,13.15625 2.6989861,13.025507 3,13 3,13 l 9,0 1,0 0,-2 -1,0 -9,0 C 3,11 2.6989861,10.974493 2.4375,10.84375 2.1760139,10.713007 2,10.666667 2,10 2,9.3333333 2.1760139,9.286993 2.4375,9.15625 2.6989861,9.025507 3,9 3,9 l 2,0 7,0 3,0 0,-2 -3,0 -7,0 C 5,7 4.6989861,6.974493 4.4375,6.84375 4.1760139,6.713007 4,6.6666667 4,6 4,5.3333333 4.1760139,5.286993 4.4375,5.15625 4.6989861,5.025507 5,5 5,5 l 8.84375,0 C 14.076551,5.2491315 14.312549,5.5312747 14.5625,5.65625 15.301014,6.025507 16,6 16,6 l 5.1875,0 c 0.149804,0.5379707 0.360023,1.0378384 0.6875,1.40625 0.521618,0.5868205 1.178639,0.9302707 1.78125,1.15625 C 24.861473,9.0144586 26,9 26,9 L 26,7 C 26,7 25.138527,6.9855414 24.34375,6.6875 23.946361,6.5384793 23.603382,6.3194295 23.375,6.0625 23.146618,5.8055705 23,5.5277778 23,5 L 23,4 22,4 16,4 C 16,4 15.698986,3.974493 15.4375,3.84375 15.176014,3.713007 15,3.6666667 15,3 15,2.3333333 15.176014,2.286993 15.4375,2.15625 15.698986,2.025507 16,2 16,2 l 8,0 c 1.666667,0 2.213007,0.6760139 2.59375,1.4375 C 26.974493,4.1989861 27,5 27,5 l 0,1 1,0 4,0 0,-2 -3.25,0 C 28.692317,3.5320992 28.771078,3.2921567 28.40625,2.5625 27.786993,1.3239861 26.333333,0 24,0 l -8,0 z m 3,12 c -1.656854,0 -3,1.343146 -3,3 0,1.656854 1.343146,3 3,3 1.656854,0 3,-1.343146 3,-3 0,-1.656854 -1.343146,-3 -3,-3 z" /></svg>