<?xml version="1.0" encoding="UTF-8" standalone="no"?>
<svg
   xmlns:dc="http://purl.org/dc/elements/1.1/"
   xmlns:cc="http://creativecommons.org/ns#"
   xmlns:rdf="http://www.w3.org/1999/02/22-rdf-syntax-ns#"
   xmlns:svg="http://www.w3.org/2000/svg"
   xmlns="http://www.w3.org/2000/svg"
   xmlns:sodipodi="http://sodipodi.sourceforge.net/DTD/sodipodi-0.dtd"
   xmlns:inkscape="http://www.inkscape.org/namespaces/inkscape"
   version="1.1"
   x="0px"
   y="0px"
   width="32px"
   height="32px"
   viewBox="0 0 32 32"
   enable-background="new 0 0 32 32"
   xml:space="preserve"
   id="svg2"
   inkscape:version="0.48.4 r9939"
   sodipodi:docname="cd_eject.svg"><defs
     id="defs3005" /><sodipodi:namedview
     pagecolor="#ffffff"
     bordercolor="#666666"
     borderopacity="1"
     objecttolerance="10"
     gridtolerance="10"
     guidetolerance="10"
     inkscape:pageopacity="0"
     inkscape:pageshadow="2"
     inkscape:window-width="640"
     inkscape:window-height="480"
     id="namedview3003"
     showgrid="false"
     inkscape:zoom="7.375"
     inkscape:cx="16"
     inkscape:cy="16"
     inkscape:window-x="53"
     inkscape:window-y="24"
     inkscape:window-maximized="0"
     inkscape:current-layer="svg2" /><metadata
     id="metadata2991"><rdf:RDF><cc:Work
         rdf:about=""><dc:format>image/svg+xml</dc:format><dc:type
           rdf:resource="http://purl.org/dc/dcmitype/StillImage" /><dc:title>PICOL Icon</dc:title><dc:date>2009-03-15</dc:date><dc:creator><cc:Agent><dc:title>Melih Bilgil</dc:title></cc:Agent></dc:creator><dc:rights><cc:Agent><dc:title>Creative Commons BY-SA</dc:title></cc:Agent></dc:rights><dc:publisher><cc:Agent><dc:title>PICOL - Pictorial Communication Language</dc:title></cc:Agent></dc:publisher><dc:identifier>http://blog.picol.org</dc:identifier><dc:source>http://blog.picol.org</dc:source><dc:language>en</dc:language><dc:subject><rdf:Bag><rdf:li>PICOL</rdf:li><rdf:li>icon</rdf:li><rdf:li>icons</rdf:li><rdf:li>sign</rdf:li><rdf:li>GUI</rdf:li><rdf:li>vector</rdf:li><rdf:li>interface</rdf:li></rdf:Bag></dc:subject><dc:description>This is one icon out of all PICOL icons</dc:description><dc:contributor><cc:Agent><dc:title>Melih Bilgil (www.lonja.de), Christopher Adjei (www.boffer.net)</dc:title></cc:Agent></dc:contributor><cc:license
           rdf:resource="http://creativecommons.org/licenses/by-sa/3.0/" /></cc:Work><cc:License
         rdf:about="http://creativecommons.org/licenses/by-sa/3.0/"><cc:permits
           rdf:resource="http://creativecommons.org/ns#Reproduction" /><cc:permits
           rdf:resource="http://creativecommons.org/ns#Distribution" /><cc:requires
           rdf:resource="http://creativecommons.org/ns#Notice" /><cc:requires
           rdf:resource="http://creativecommons.org/ns#Attribution" /><cc:permits
           rdf:resource="http://creativecommons.org/ns#DerivativeWorks" /><cc:requires
           rdf:resource="http://creativecommons.org/ns#ShareAlike" /></cc:License></rdf:RDF></metadata><g
     id="background"><rect
       fill="none"
       width="32"
       height="32"
       id="rect2994" /></g><path
     id="rect3001"
     style=""
     d="m 19,24 8,0 0,2 -8,0 z m 4,-6 -4,4 8,0 z m 9,-2.001 C 31.998,7.164 24.838,0.002 16,0 7.164,0.002 0.002,7.164 0,15.999 0.002,24.838 7.164,31.998 16,32 17.38,32 18.712,31.805 19.987,31.473 20.931,31.807 21.941,32 23,32 c 4.971,0 8.998,-4.029 8.998,-9 0,-1.057 -0.19,-2.068 -0.525,-3.01 C 31.806,18.713 32,17.381 32,15.999 z M 16,29.998 C 8.268,29.986 2.015,23.732 2,15.999 2.015,8.267 8.268,2.015 16,2 23.733,2.015 29.986,8.267 29.999,15.999 29.998,16.426 29.973,16.847 29.934,17.264 28.283,15.271 25.79,14 23,14 22.551,14 22.113,14.044 21.682,14.107 20.889,11.723 18.65,10 16,10 c -3.314,0 -5.999,2.685 -5.999,5.999 0,2.651 1.722,4.889 4.106,5.682 C 14.044,22.113 14,22.551 14,23 c 0,2.791 1.27,5.283 3.262,6.934 -0.416,0.039 -0.836,0.064 -1.262,0.064 z M 17.946,15.553 C 17.742,14.665 16.95,14 16.001,14 c -1.104,0 -2,0.896 -2,2 0,0.949 0.664,1.742 1.552,1.945 -0.374,0.551 -0.681,1.146 -0.927,1.773 C 13.1,19.158 12.004,17.721 12.001,16 c 0.004,-2.21 1.79,-3.996 3.999,-4 1.722,0.003 3.159,1.099 3.72,2.625 -0.628,0.247 -1.224,0.554 -1.774,0.928 z M 23,30 c -3.865,-0.008 -6.994,-3.135 -7,-7 0.006,-3.865 3.135,-6.994 7,-7 3.864,0.006 6.991,3.134 6.999,7 -0.008,3.865 -3.135,6.992 -6.999,7 z" /></svg>