<?xml version="1.0" encoding="UTF-8" standalone="no"?>
<svg
   xmlns:dc="http://purl.org/dc/elements/1.1/"
   xmlns:cc="http://creativecommons.org/ns#"
   xmlns:rdf="http://www.w3.org/1999/02/22-rdf-syntax-ns#"
   xmlns:svg="http://www.w3.org/2000/svg"
   xmlns="http://www.w3.org/2000/svg"
   xmlns:sodipodi="http://sodipodi.sourceforge.net/DTD/sodipodi-0.dtd"
   xmlns:inkscape="http://www.inkscape.org/namespaces/inkscape"
   version="1.1"
   x="0px"
   y="0px"
   width="32px"
   height="32px"
   viewBox="0 0 32 32"
   enable-background="new 0 0 32 32"
   xml:space="preserve"
   id="svg2"
   inkscape:version="0.48.4 r9939"
   sodipodi:docname="cd_run.svg"><defs
     id="defs3037" /><sodipodi:namedview
     pagecolor="#ffffff"
     bordercolor="#666666"
     borderopacity="1"
     objecttolerance="10"
     gridtolerance="10"
     guidetolerance="10"
     inkscape:pageopacity="0"
     inkscape:pageshadow="2"
     inkscape:window-width="640"
     inkscape:window-height="480"
     id="namedview3035"
     showgrid="false"
     inkscape:zoom="7.375"
     inkscape:cx="16"
     inkscape:cy="16"
     inkscape:window-x="53"
     inkscape:window-y="24"
     inkscape:window-maximized="0"
     inkscape:current-layer="svg2" /><metadata
     id="metadata3025"><rdf:RDF><cc:Work
         rdf:about=""><dc:format>image/svg+xml</dc:format><dc:type
           rdf:resource="http://purl.org/dc/dcmitype/StillImage" /><dc:title>PICOL Icon</dc:title><dc:date>2009-03-15</dc:date><dc:creator><cc:Agent><dc:title>Melih Bilgil</dc:title></cc:Agent></dc:creator><dc:rights><cc:Agent><dc:title>Creative Commons BY-SA</dc:title></cc:Agent></dc:rights><dc:publisher><cc:Agent><dc:title>PICOL - Pictorial Communication Language</dc:title></cc:Agent></dc:publisher><dc:identifier>http://blog.picol.org</dc:identifier><dc:source>http://blog.picol.org</dc:source><dc:language>en</dc:language><dc:subject><rdf:Bag><rdf:li>PICOL</rdf:li><rdf:li>icon</rdf:li><rdf:li>icons</rdf:li><rdf:li>sign</rdf:li><rdf:li>GUI</rdf:li><rdf:li>vector</rdf:li><rdf:li>interface</rdf:li></rdf:Bag></dc:subject><dc:description>This is one icon out of all PICOL icons</dc:description><dc:contributor><cc:Agent><dc:title>Melih Bilgil (www.lonja.de), Christopher Adjei (www.boffer.net)</dc:title></cc:Agent></dc:contributor><cc:license
           rdf:resource="http://creativecommons.org/licenses/by-sa/3.0/" /></cc:Work><cc:License
         rdf:about="http://creativecommons.org/licenses/by-sa/3.0/"><cc:permits
           rdf:resource="http://creativecommons.org/ns#Reproduction" /><cc:permits
           rdf:resource="http://creativecommons.org/ns#Distribution" /><cc:requires
           rdf:resource="http://creativecommons.org/ns#Notice" /><cc:requires
           rdf:resource="http://creativecommons.org/ns#Attribution" /><cc:permits
           rdf:resource="http://creativecommons.org/ns#DerivativeWorks" /><cc:requires
           rdf:resource="http://creativecommons.org/ns#ShareAlike" /></cc:License></rdf:RDF></metadata><g
     id="background"><rect
       x="0.001"
       fill="none"
       width="32"
       height="32"
       id="rect3028" /></g><path
     id="polygon3033"
     style=""
     d="m 26.001,23 -4,-4 0,8 z m 6,-7 C 31.999,7.164 24.838,0.002 16,0 7.164,0.002 0.002,7.164 0,16 c 0.002,8.838 7.164,16 16,16.001 1.38,0 2.712,-0.195 3.987,-0.528 C 20.931,31.808 21.941,32 23,32 c 4.971,0 8.999,-4.028 8.999,-8.999 0,-1.058 -0.191,-2.068 -0.526,-3.011 0.333,-1.276 0.528,-2.608 0.528,-3.99 z M 16,29.999 C 8.268,29.986 2.015,23.733 2,16 2.015,8.268 8.268,2.015 16,2 c 7.733,0.015 13.986,6.268 13.999,14 -10e-4,0.427 -0.026,0.848 -0.065,1.264 -1.65,-1.993 -4.144,-3.263 -6.934,-3.263 -0.449,0 -0.887,0.044 -1.318,0.107 -0.793,-2.385 -3.031,-4.107 -5.682,-4.107 -3.314,0 -5.999,2.685 -5.999,5.999 0,2.65 1.722,4.889 4.106,5.682 -0.063,0.431 -0.107,0.87 -0.107,1.319 0,2.79 1.27,5.282 3.262,6.933 -0.416,0.039 -0.836,0.064 -1.262,0.065 z m 1.946,-14.445 c -0.204,-0.889 -0.996,-1.553 -1.945,-1.553 -1.104,0 -2,0.896 -2,2 0,0.949 0.664,1.741 1.552,1.945 -0.374,0.55 -0.681,1.146 -0.927,1.773 C 13.1,19.157 12.004,17.72 12.001,15.999 12.005,13.79 13.791,12.004 16,12 c 1.722,0.003 3.159,1.099 3.72,2.625 -0.628,0.247 -1.224,0.555 -1.774,0.929 z M 23,30 c -3.865,-0.008 -6.994,-3.135 -7,-6.999 0.006,-3.865 3.135,-6.994 7,-7 3.864,0.006 6.991,3.135 6.999,7 C 29.991,26.865 26.864,29.992 23,30 z" /></svg>