<?xml version="1.0" encoding="UTF-8" standalone="no"?>
<svg
   xmlns:dc="http://purl.org/dc/elements/1.1/"
   xmlns:cc="http://creativecommons.org/ns#"
   xmlns:rdf="http://www.w3.org/1999/02/22-rdf-syntax-ns#"
   xmlns:svg="http://www.w3.org/2000/svg"
   xmlns="http://www.w3.org/2000/svg"
   xmlns:sodipodi="http://sodipodi.sourceforge.net/DTD/sodipodi-0.dtd"
   xmlns:inkscape="http://www.inkscape.org/namespaces/inkscape"
   version="1.1"
   x="0px"
   y="0px"
   width="32px"
   height="32px"
   viewBox="0 0 32 32"
   enable-background="new 0 0 32 32"
   xml:space="preserve"
   id="svg2"
   inkscape:version="0.48.4 r9939"
   sodipodi:docname="cd_write.svg"><defs
     id="defs3084" /><sodipodi:namedview
     pagecolor="#ffffff"
     bordercolor="#666666"
     borderopacity="1"
     objecttolerance="10"
     gridtolerance="10"
     guidetolerance="10"
     inkscape:pageopacity="0"
     inkscape:pageshadow="2"
     inkscape:window-width="1867"
     inkscape:window-height="1056"
     id="namedview3082"
     showgrid="false"
     inkscape:zoom="7.375"
     inkscape:cx="-1.7627119"
     inkscape:cy="16"
     inkscape:window-x="53"
     inkscape:window-y="24"
     inkscape:window-maximized="1"
     inkscape:current-layer="svg2" /><metadata
     id="metadata3070"><rdf:RDF><cc:Work
         rdf:about=""><dc:format>image/svg+xml</dc:format><dc:type
           rdf:resource="http://purl.org/dc/dcmitype/StillImage" /><dc:title>PICOL Icon</dc:title><dc:date>2009-03-15</dc:date><dc:creator><cc:Agent><dc:title>Melih Bilgil</dc:title></cc:Agent></dc:creator><dc:rights><cc:Agent><dc:title>Creative Commons BY-SA</dc:title></cc:Agent></dc:rights><dc:publisher><cc:Agent><dc:title>PICOL - Pictorial Communication Language</dc:title></cc:Agent></dc:publisher><dc:identifier>http://blog.picol.org</dc:identifier><dc:source>http://blog.picol.org</dc:source><dc:language>en</dc:language><dc:subject><rdf:Bag><rdf:li>PICOL</rdf:li><rdf:li>icon</rdf:li><rdf:li>icons</rdf:li><rdf:li>sign</rdf:li><rdf:li>GUI</rdf:li><rdf:li>vector</rdf:li><rdf:li>interface</rdf:li></rdf:Bag></dc:subject><dc:description>This is one icon out of all PICOL icons</dc:description><dc:contributor><cc:Agent><dc:title>Melih Bilgil (www.lonja.de), Christopher Adjei (www.boffer.net)</dc:title></cc:Agent></dc:contributor><cc:license
           rdf:resource="http://creativecommons.org/licenses/by-sa/3.0/" /></cc:Work><cc:License
         rdf:about="http://creativecommons.org/licenses/by-sa/3.0/"><cc:permits
           rdf:resource="http://creativecommons.org/ns#Reproduction" /><cc:permits
           rdf:resource="http://creativecommons.org/ns#Distribution" /><cc:requires
           rdf:resource="http://creativecommons.org/ns#Notice" /><cc:requires
           rdf:resource="http://creativecommons.org/ns#Attribution" /><cc:permits
           rdf:resource="http://creativecommons.org/ns#DerivativeWorks" /><cc:requires
           rdf:resource="http://creativecommons.org/ns#ShareAlike" /></cc:License></rdf:RDF></metadata><path
     id="rect3080"
     d="m 27.999856,20.999945 -4.999904,4.999904 -3.000225,-3.000225 4.999904,-4.999905 z m -9.000356,3.000554 2.999999,3 -3,0 z m 13.001,-8.001 C 31.9985,7.1634995 24.837499,0.0014995 15.9995,-5.005e-4 c -8.8359995,0.002 -15.9980005,7.164 -16.0000005,16.0000005 0.002,8.837999 7.164001,15.999999 15.9999995,16.001 1.380001,0 2.712001,-0.195001 3.987,-0.528001 0.944001,0.335 1.954001,0.527 3.013,0.527 4.971001,0 8.999001,-4.028 8.999,-8.999 0,-1.058 -0.190998,-2.068 -0.526,-3.011 0.333001,-1.276 0.528001,-2.608 0.528001,-3.99 z m -16.001,13.999 c -7.7319995,-0.013 -13.9850005,-6.266 -14.0000005,-13.999 0.015,-7.7319995 6.268,-13.9849995 13.9999995,-13.9999995 7.733,0.015 13.986001,6.268 13.999,13.9999995 -9.99e-4,0.427 -0.026,0.848 -0.065,1.264001 -1.65,-1.993 -4.144,-3.263 -6.934001,-3.263 -0.449,0 -0.887,0.044 -1.318,0.107 -0.792999,-2.385 -3.030999,-4.107 -5.682,-4.107 -3.313999,0 -5.998998,2.685 -5.999,5.999 0,2.65 1.722,4.889 4.106001,5.682 -0.063,0.431 -0.107001,0.87 -0.107001,1.319 0,2.79 1.270001,5.282 3.262001,6.933 -0.416001,0.039 -0.836001,0.064 -1.262,0.065 z M 17.945499,15.5535 c -0.204,-0.889001 -0.996,-1.553 -1.944999,-1.553 -1.104,0 -2,0.896 -2,2 -1e-6,0.949 0.663999,1.741 1.551999,1.945 -0.373999,0.549999 -0.680999,1.146 -0.927,1.773 -1.526,-0.562 -2.622,-1.999 -2.624999,-3.72 0.004,-2.209 1.789999,-3.995 3.999,-3.999 1.721999,0.003 3.159,1.099 3.719999,2.625 -0.627999,0.247 -1.224,0.555 -1.774,0.929 z m 5.054,14.445999 c -3.864998,-0.008 -6.993999,-3.135 -6.999999,-6.999 0.006,-3.865 3.135,-6.994 7,-7 3.864,0.006 6.991,3.135 6.998999,7 -0.008,3.864 -3.135,6.991 -6.999,6.999 z"
     inkscape:connector-curvature="0" /></svg>