<?xml version="1.0" encoding="UTF-8" standalone="no"?>
<svg
   xmlns:dc="http://purl.org/dc/elements/1.1/"
   xmlns:cc="http://creativecommons.org/ns#"
   xmlns:rdf="http://www.w3.org/1999/02/22-rdf-syntax-ns#"
   xmlns:svg="http://www.w3.org/2000/svg"
   xmlns="http://www.w3.org/2000/svg"
   xmlns:sodipodi="http://sodipodi.sourceforge.net/DTD/sodipodi-0.dtd"
   xmlns:inkscape="http://www.inkscape.org/namespaces/inkscape"
   version="1.1"
   x="0px"
   y="0px"
   width="32px"
   height="32px"
   viewBox="0 0 32 32"
   enable-background="new 0 0 32 32"
   xml:space="preserve"
   id="svg2"
   inkscape:version="0.48.4 r9939"
   sodipodi:docname="chat_pause.svg"><defs
     id="defs3005" /><sodipodi:namedview
     pagecolor="#ffffff"
     bordercolor="#666666"
     borderopacity="1"
     objecttolerance="10"
     gridtolerance="10"
     guidetolerance="10"
     inkscape:pageopacity="0"
     inkscape:pageshadow="2"
     inkscape:window-width="640"
     inkscape:window-height="480"
     id="namedview3003"
     showgrid="false"
     inkscape:zoom="7.375"
     inkscape:cx="16"
     inkscape:cy="16"
     inkscape:window-x="53"
     inkscape:window-y="24"
     inkscape:window-maximized="0"
     inkscape:current-layer="svg2" /><metadata
     id="metadata2991"><rdf:RDF><cc:Work
         rdf:about=""><dc:format>image/svg+xml</dc:format><dc:type
           rdf:resource="http://purl.org/dc/dcmitype/StillImage" /><dc:title>PICOL Icon</dc:title><dc:date>2009-03-15</dc:date><dc:creator><cc:Agent><dc:title>Melih Bilgil</dc:title></cc:Agent></dc:creator><dc:rights><cc:Agent><dc:title>Creative Commons BY-SA</dc:title></cc:Agent></dc:rights><dc:publisher><cc:Agent><dc:title>PICOL - Pictorial Communication Language</dc:title></cc:Agent></dc:publisher><dc:identifier>http://blog.picol.org</dc:identifier><dc:source>http://blog.picol.org</dc:source><dc:language>en</dc:language><dc:subject><rdf:Bag><rdf:li>PICOL</rdf:li><rdf:li>icon</rdf:li><rdf:li>icons</rdf:li><rdf:li>sign</rdf:li><rdf:li>GUI</rdf:li><rdf:li>vector</rdf:li><rdf:li>interface</rdf:li></rdf:Bag></dc:subject><dc:description>This is one icon out of all PICOL icons</dc:description><dc:contributor><cc:Agent><dc:title>Melih Bilgil (www.lonja.de), Christopher Adjei (www.boffer.net)</dc:title></cc:Agent></dc:contributor><cc:license
           rdf:resource="http://creativecommons.org/licenses/by-sa/3.0/" /></cc:Work><cc:License
         rdf:about="http://creativecommons.org/licenses/by-sa/3.0/"><cc:permits
           rdf:resource="http://creativecommons.org/ns#Reproduction" /><cc:permits
           rdf:resource="http://creativecommons.org/ns#Distribution" /><cc:requires
           rdf:resource="http://creativecommons.org/ns#Notice" /><cc:requires
           rdf:resource="http://creativecommons.org/ns#Attribution" /><cc:permits
           rdf:resource="http://creativecommons.org/ns#DerivativeWorks" /><cc:requires
           rdf:resource="http://creativecommons.org/ns#ShareAlike" /></cc:License></rdf:RDF></metadata><g
     id="background"><rect
       fill="none"
       width="32"
       height="32"
       id="rect2994" /></g><path
     id="rect3001"
     style=""
     d="m 20,20 2,0 0,6 -2,0 z m 4,0 2,0 0,6 -2,0 z M 12,4 V 8 H 0 v 20 h 2.413 l 4.002,-4 h 7.644 c 0.498,4.499 4.308,7.998 8.941,8 4.971,-0.002 8.998,-4.029 9,-9 V 4 H 12 z M 5.583,22 2,25.583 V 10 h 16 v 5.517 C 15.85,16.955 14.358,19.297 14.059,22 H 5.583 z M 23,29.883 C 19.199,29.874 16.125,26.799 16.116,23 16.124,19.199 19.199,16.124 23,16.115 26.799,16.124 29.875,19.199 29.883,23 29.875,26.799 26.799,29.874 23,29.883 z M 23,14 c -1.055,0 -2.061,0.19 -3.002,0.523 V 8 H 14 c 0,0 0,-2 0,-2 H 30 V 17.349 C 28.352,15.308 25.83,14 23,14 z" /></svg>