<?xml version="1.0" encoding="UTF-8" standalone="no"?>
<svg
   xmlns:dc="http://purl.org/dc/elements/1.1/"
   xmlns:cc="http://creativecommons.org/ns#"
   xmlns:rdf="http://www.w3.org/1999/02/22-rdf-syntax-ns#"
   xmlns:svg="http://www.w3.org/2000/svg"
   xmlns="http://www.w3.org/2000/svg"
   xmlns:sodipodi="http://sodipodi.sourceforge.net/DTD/sodipodi-0.dtd"
   xmlns:inkscape="http://www.inkscape.org/namespaces/inkscape"
   version="1.1"
   x="0px"
   y="0px"
   width="32px"
   height="32px"
   viewBox="0 0 32 32"
   enable-background="new 0 0 32 32"
   xml:space="preserve"
   id="svg2"
   inkscape:version="0.48.4 r9939"
   sodipodi:docname="credit_card.svg"><defs
     id="defs3073" /><sodipodi:namedview
     pagecolor="#ffffff"
     bordercolor="#666666"
     borderopacity="1"
     objecttolerance="10"
     gridtolerance="10"
     guidetolerance="10"
     inkscape:pageopacity="0"
     inkscape:pageshadow="2"
     inkscape:window-width="640"
     inkscape:window-height="480"
     id="namedview3071"
     showgrid="false"
     inkscape:zoom="7.375"
     inkscape:cx="16"
     inkscape:cy="16"
     inkscape:window-x="53"
     inkscape:window-y="24"
     inkscape:window-maximized="0"
     inkscape:current-layer="svg2" /><metadata
     id="metadata3063"><rdf:RDF><cc:Work
         rdf:about=""><dc:format>image/svg+xml</dc:format><dc:type
           rdf:resource="http://purl.org/dc/dcmitype/StillImage" /><dc:title>PICOL Icon</dc:title><dc:date>2011-08-08</dc:date><dc:creator><cc:Agent><dc:title>Melih Bilgil</dc:title></cc:Agent></dc:creator><dc:rights><cc:Agent><dc:title>Creative Commons BY-SA</dc:title></cc:Agent></dc:rights><dc:publisher><cc:Agent><dc:title>PICOL - Pictorial Communication Language</dc:title></cc:Agent></dc:publisher><dc:identifier>http://blog.picol.org</dc:identifier><dc:source>http://blog.picol.org</dc:source><dc:language>en</dc:language><dc:subject><rdf:Bag><rdf:li>PICOL</rdf:li><rdf:li>icon</rdf:li><rdf:li>icons</rdf:li><rdf:li>sign</rdf:li><rdf:li>GUI</rdf:li><rdf:li>vector</rdf:li><rdf:li>interface</rdf:li></rdf:Bag></dc:subject><dc:description>This is one icon out of all PICOL icons</dc:description><dc:contributor><cc:Agent><dc:title>Melih Bilgil (www.lonja.de)</dc:title></cc:Agent></dc:contributor><cc:license
           rdf:resource="http://creativecommons.org/licenses/by-sa/3.0/" /></cc:Work><cc:License
         rdf:about="http://creativecommons.org/licenses/by-sa/3.0/"><cc:permits
           rdf:resource="http://creativecommons.org/ns#Reproduction" /><cc:permits
           rdf:resource="http://creativecommons.org/ns#Distribution" /><cc:requires
           rdf:resource="http://creativecommons.org/ns#Notice" /><cc:requires
           rdf:resource="http://creativecommons.org/ns#Attribution" /><cc:permits
           rdf:resource="http://creativecommons.org/ns#DerivativeWorks" /><cc:requires
           rdf:resource="http://creativecommons.org/ns#ShareAlike" /></cc:License></rdf:RDF></metadata><g
     id="background"><rect
       fill="none"
       width="32"
       height="32"
       id="rect3066" /></g><path
     id="path3069"
     d="M 31.513,8.014 C 31.054,7.028 29.843,5.965 27.999,6 H 4 C 2.146,5.965 0.935,7.057 0.48,8.054 -0.006,9.044 0.004,9.916 0,10 v 11.999 c 0.004,0.083 -0.006,0.956 0.48,1.947 C 0.928,24.927 2.108,26 3.913,26 3.942,26 3.971,26 4,25.999 h 23.999 c 0.083,-0.006 0.956,0.007 1.946,-0.481 0.997,-0.453 2.089,-1.664 2.054,-3.519 V 9.938 C 31.993,9.852 32.006,8.991 31.513,8.014 z M 2.033,9.695 C 2.083,9.376 2.227,8.908 2.5,8.589 2.781,8.276 3.125,8.014 4,8 h 23.999 c 1.156,0.035 1.444,0.438 1.734,0.923 0.126,0.247 0.198,0.519 0.233,0.723 C 30,9.85 29.99,9.937 29.998,9.938 V 10 H 2 C 2,10 1.998,9.905 2.033,9.695 z m 27.019,14.034 c -0.255,0.128 -0.537,0.202 -0.748,0.235 -0.21,0.036 -0.305,0.028 -0.305,0.034 H 4 C 2.853,23.964 2.564,23.554 2.268,23.051 2.141,22.796 2.068,22.514 2.034,22.301 1.998,22.094 2.006,21.999 2,21.999 V 14 h 27.999 v 7.999 c -0.035,1.146 -0.444,1.436 -0.947,1.73 z" /></svg>