<?xml version="1.0" encoding="UTF-8" standalone="no"?>
<svg
   xmlns:dc="http://purl.org/dc/elements/1.1/"
   xmlns:cc="http://creativecommons.org/ns#"
   xmlns:rdf="http://www.w3.org/1999/02/22-rdf-syntax-ns#"
   xmlns:svg="http://www.w3.org/2000/svg"
   xmlns="http://www.w3.org/2000/svg"
   xmlns:sodipodi="http://sodipodi.sourceforge.net/DTD/sodipodi-0.dtd"
   xmlns:inkscape="http://www.inkscape.org/namespaces/inkscape"
   version="1.1"
   x="0px"
   y="0px"
   width="32px"
   height="32px"
   viewBox="0 0 32 32"
   enable-background="new 0 0 32 32"
   xml:space="preserve"
   id="svg2"
   inkscape:version="0.48.4 r9939"
   sodipodi:docname="database_edit.svg"><defs
     id="defs3150" /><sodipodi:namedview
     pagecolor="#ffffff"
     bordercolor="#666666"
     borderopacity="1"
     objecttolerance="10"
     gridtolerance="10"
     guidetolerance="10"
     inkscape:pageopacity="0"
     inkscape:pageshadow="2"
     inkscape:window-width="640"
     inkscape:window-height="480"
     id="namedview3148"
     showgrid="false"
     inkscape:zoom="7.375"
     inkscape:cx="16"
     inkscape:cy="16"
     inkscape:window-x="53"
     inkscape:window-y="31"
     inkscape:window-maximized="0"
     inkscape:current-layer="svg2" /><metadata
     id="metadata3136"><rdf:RDF><cc:Work
         rdf:about=""><dc:format>image/svg+xml</dc:format><dc:type
           rdf:resource="http://purl.org/dc/dcmitype/StillImage" /><dc:title>PICOL Icon</dc:title><dc:date>2009-03-15</dc:date><dc:creator><cc:Agent><dc:title>Melih Bilgil</dc:title></cc:Agent></dc:creator><dc:rights><cc:Agent><dc:title>Creative Commons BY-SA</dc:title></cc:Agent></dc:rights><dc:publisher><cc:Agent><dc:title>PICOL - Pictorial Communication Language</dc:title></cc:Agent></dc:publisher><dc:identifier>http://blog.picol.org</dc:identifier><dc:source>http://blog.picol.org</dc:source><dc:language>en</dc:language><dc:subject><rdf:Bag><rdf:li>PICOL</rdf:li><rdf:li>icon</rdf:li><rdf:li>icons</rdf:li><rdf:li>sign</rdf:li><rdf:li>GUI</rdf:li><rdf:li>vector</rdf:li><rdf:li>interface</rdf:li></rdf:Bag></dc:subject><dc:description>This is one icon out of all PICOL icons</dc:description><dc:contributor><cc:Agent><dc:title>Melih Bilgil (www.lonja.de), Christopher Adjei (www.boffer.net)</dc:title></cc:Agent></dc:contributor><cc:license
           rdf:resource="http://creativecommons.org/licenses/by-sa/3.0/" /></cc:Work><cc:License
         rdf:about="http://creativecommons.org/licenses/by-sa/3.0/"><cc:permits
           rdf:resource="http://creativecommons.org/ns#Reproduction" /><cc:permits
           rdf:resource="http://creativecommons.org/ns#Distribution" /><cc:requires
           rdf:resource="http://creativecommons.org/ns#Notice" /><cc:requires
           rdf:resource="http://creativecommons.org/ns#Attribution" /><cc:permits
           rdf:resource="http://creativecommons.org/ns#DerivativeWorks" /><cc:requires
           rdf:resource="http://creativecommons.org/ns#ShareAlike" /></cc:License></rdf:RDF></metadata><g
     id="background"><rect
       fill="none"
       width="32"
       height="32"
       id="rect3139" /></g><path
     id="rect3146"
     d="M 28.000366,20.999454 23.000461,25.99936 20.000236,22.999133 25.00014,17.999229 z M 19,24 l 3,3 -3,0 z m 10.998,-6.652001 -1e-6,-12.3489995 c 0.027,-0.272 -0.204999,-1.715 -2.102,-2.851 -1.884,-1.151 -5.297999,-2.144001 -11.893999,-2.148 -6.5990002,0.004 -10.0130002,0.997 -11.8990002,2.148 -1.895,1.135 -2.128,2.578 -2.101,2.851 l 0,22.7399995 c -0.035,0.353 0.304999,1.628 2.176,2.525 1.867,0.926 5.239,1.73 11.8220002,1.736001 1.978,-0.002 3.66,-0.076 5.104,-0.204001 0.612,0.131 1.245,0.204 1.895,0.204 4.971,-0.002 8.999,-4.03 9.001,-9.001 -0.001,-2.143 -0.752001,-4.106 -2.002,-5.651 z M 16,30 C 9.5859998,30.007 6.4589998,29.179 5.0759998,28.475999 c -0.694,-0.35 -0.987,-0.648 -1.075,-0.78 -0.01797,-0.02703 0.009,-0.047 0.002,-0.06201 l -0.003,-19.8509895 c 0.037,0.023 0.065,0.047 0.103,0.069 1.886,1.149 5.3,2.141 11.8990012,2.148 6.595999,-0.006 10.009999,-0.999 11.894998,-2.147 0.037,-0.023 0.066,-0.048 0.102997,-0.07 l 0,7.7350005 c -1.431,-0.957 -3.15,-1.518 -5.001,-1.518 -4.971999,0.002 -8.996999,4.027 -8.998999,8.999 0,2.822 1.301,5.338 3.332,6.988 -0.43,0.008 -0.867,0.014 -1.332,0.013 z m 6.999,-0.002 c -3.865,-0.006 -6.991,-3.133 -7,-6.999 0.009,-3.865 3.135,-6.991 6.999999,-7 3.866001,0.009 6.993001,3.135 6.999001,7 -0.006,3.866 -3.133001,6.993 -6.999,6.999 z"
     inkscape:connector-curvature="0" /></svg>