<?xml version="1.0" encoding="UTF-8" standalone="no"?>
<svg
   xmlns:dc="http://purl.org/dc/elements/1.1/"
   xmlns:cc="http://creativecommons.org/ns#"
   xmlns:rdf="http://www.w3.org/1999/02/22-rdf-syntax-ns#"
   xmlns:svg="http://www.w3.org/2000/svg"
   xmlns="http://www.w3.org/2000/svg"
   xmlns:sodipodi="http://sodipodi.sourceforge.net/DTD/sodipodi-0.dtd"
   xmlns:inkscape="http://www.inkscape.org/namespaces/inkscape"
   version="1.1"
   x="0px"
   y="0px"
   width="32px"
   height="32px"
   viewBox="0 0 32 32"
   enable-background="new 0 0 32 32"
   xml:space="preserve"
   id="svg2"
   inkscape:version="0.48.4 r9939"
   sodipodi:docname="database_information.svg"><defs
     id="defs3165" /><sodipodi:namedview
     pagecolor="#ffffff"
     bordercolor="#666666"
     borderopacity="1"
     objecttolerance="10"
     gridtolerance="10"
     guidetolerance="10"
     inkscape:pageopacity="0"
     inkscape:pageshadow="2"
     inkscape:window-width="640"
     inkscape:window-height="480"
     id="namedview3163"
     showgrid="false"
     inkscape:zoom="7.375"
     inkscape:cx="16"
     inkscape:cy="16"
     inkscape:window-x="53"
     inkscape:window-y="24"
     inkscape:window-maximized="0"
     inkscape:current-layer="svg2" /><metadata
     id="metadata3153"><rdf:RDF><cc:Work
         rdf:about=""><dc:format>image/svg+xml</dc:format><dc:type
           rdf:resource="http://purl.org/dc/dcmitype/StillImage" /><dc:title>PICOL Icon</dc:title><dc:date>2009-03-15</dc:date><dc:creator><cc:Agent><dc:title>Melih Bilgil</dc:title></cc:Agent></dc:creator><dc:rights><cc:Agent><dc:title>Creative Commons BY-SA</dc:title></cc:Agent></dc:rights><dc:publisher><cc:Agent><dc:title>PICOL - Pictorial Communication Language</dc:title></cc:Agent></dc:publisher><dc:identifier>http://blog.picol.org</dc:identifier><dc:source>http://blog.picol.org</dc:source><dc:language>en</dc:language><dc:subject><rdf:Bag><rdf:li>PICOL</rdf:li><rdf:li>icon</rdf:li><rdf:li>icons</rdf:li><rdf:li>sign</rdf:li><rdf:li>GUI</rdf:li><rdf:li>vector</rdf:li><rdf:li>interface</rdf:li></rdf:Bag></dc:subject><dc:description>This is one icon out of all PICOL icons</dc:description><dc:contributor><cc:Agent><dc:title>Melih Bilgil (www.lonja.de), Christopher Adjei (www.boffer.net)</dc:title></cc:Agent></dc:contributor><cc:license
           rdf:resource="http://creativecommons.org/licenses/by-sa/3.0/" /></cc:Work><cc:License
         rdf:about="http://creativecommons.org/licenses/by-sa/3.0/"><cc:permits
           rdf:resource="http://creativecommons.org/ns#Reproduction" /><cc:permits
           rdf:resource="http://creativecommons.org/ns#Distribution" /><cc:requires
           rdf:resource="http://creativecommons.org/ns#Notice" /><cc:requires
           rdf:resource="http://creativecommons.org/ns#Attribution" /><cc:permits
           rdf:resource="http://creativecommons.org/ns#DerivativeWorks" /><cc:requires
           rdf:resource="http://creativecommons.org/ns#ShareAlike" /></cc:License></rdf:RDF></metadata><g
     id="background"><rect
       fill="none"
       width="32"
       height="32"
       id="rect3156" /></g><path
     id="path3161"
     d="m 22,28 h 2 v -6 h -2 v 6 z m 0,-10 v 2 h 2 v -2 h -2 z m 7.998,-0.652 V 4.999 C 30.025,4.727 29.793,3.284 27.896,2.148 26.012,0.997 22.598,0.004 16.002,0 9.403,0.004 5.989,0.997 4.103,2.148 2.208,3.283 1.975,4.726 2.002,4.999 v 22.74 C 1.967,28.092 2.307,29.367 4.178,30.264 6.045,31.19 9.417,31.994 16,32 17.978,31.998 19.66,31.924 21.104,31.796 21.716,31.927 22.349,32 22.999,32 27.97,31.998 31.998,27.97 32,22.999 31.999,20.856 31.248,18.893 29.998,17.348 z M 16,30 C 9.586,30.007 6.459,29.179 5.076,28.476 4.382,28.126 4.089,27.828 4.001,27.696 3.983,27.669 4.01,27.649 4.003,27.634 L 4,7.783 C 4.037,7.806 4.065,7.83 4.103,7.852 5.989,9.001 9.403,9.993 16.002,10 22.598,9.994 26.012,9.001 27.897,7.853 27.934,7.83 27.963,7.805 28,7.783 v 7.735 C 26.569,14.561 24.85,14 22.999,14 c -4.972,0.002 -8.998,4.027 -9,8.999 C 14,25.821 15.3,28.337 17.332,29.987 16.902,29.995 16.465,30.001 16,30 z m 6.999,-0.002 c -3.865,-0.006 -6.992,-3.133 -7,-6.999 0.008,-3.865 3.135,-6.991 7,-7 3.866,0.009 6.993,3.135 6.999,7 -0.006,3.866 -3.133,6.993 -6.999,6.999 z" /></svg>