<?xml version="1.0" encoding="UTF-8" standalone="no"?>
<svg
   xmlns:dc="http://purl.org/dc/elements/1.1/"
   xmlns:cc="http://creativecommons.org/ns#"
   xmlns:rdf="http://www.w3.org/1999/02/22-rdf-syntax-ns#"
   xmlns:svg="http://www.w3.org/2000/svg"
   xmlns="http://www.w3.org/2000/svg"
   xmlns:sodipodi="http://sodipodi.sourceforge.net/DTD/sodipodi-0.dtd"
   xmlns:inkscape="http://www.inkscape.org/namespaces/inkscape"
   version="1.1"
   x="0px"
   y="0px"
   width="32px"
   height="32px"
   viewBox="0 0 32 32"
   enable-background="new 0 0 32 32"
   xml:space="preserve"
   id="svg2"
   inkscape:version="0.48.4 r9939"
   sodipodi:docname="filter_settings.svg"><defs
     id="defs3077" /><sodipodi:namedview
     pagecolor="#ffffff"
     bordercolor="#666666"
     borderopacity="1"
     objecttolerance="10"
     gridtolerance="10"
     guidetolerance="10"
     inkscape:pageopacity="0"
     inkscape:pageshadow="2"
     inkscape:window-width="640"
     inkscape:window-height="480"
     id="namedview3075"
     showgrid="false"
     inkscape:zoom="7.375"
     inkscape:cx="16"
     inkscape:cy="16"
     inkscape:window-x="53"
     inkscape:window-y="24"
     inkscape:window-maximized="0"
     inkscape:current-layer="svg2" /><metadata
     id="metadata3059"><rdf:RDF><cc:Work
         rdf:about=""><dc:format>image/svg+xml</dc:format><dc:type
           rdf:resource="http://purl.org/dc/dcmitype/StillImage" /><dc:title>PICOL Icon</dc:title><dc:date>2009-03-15</dc:date><dc:creator><cc:Agent><dc:title>Melih Bilgil</dc:title></cc:Agent></dc:creator><dc:rights><cc:Agent><dc:title>Creative Commons BY-SA</dc:title></cc:Agent></dc:rights><dc:publisher><cc:Agent><dc:title>PICOL - Pictorial Communication Language</dc:title></cc:Agent></dc:publisher><dc:identifier>http://blog.picol.org</dc:identifier><dc:source>http://blog.picol.org</dc:source><dc:language>en</dc:language><dc:subject><rdf:Bag><rdf:li>PICOL</rdf:li><rdf:li>icon</rdf:li><rdf:li>icons</rdf:li><rdf:li>sign</rdf:li><rdf:li>GUI</rdf:li><rdf:li>vector</rdf:li><rdf:li>interface</rdf:li></rdf:Bag></dc:subject><dc:description>This is one icon out of all PICOL icons</dc:description><dc:contributor><cc:Agent><dc:title>Melih Bilgil (www.lonja.de), Christopher Adjei (www.boffer.net)</dc:title></cc:Agent></dc:contributor><cc:license
           rdf:resource="http://creativecommons.org/licenses/by-sa/3.0/" /></cc:Work><cc:License
         rdf:about="http://creativecommons.org/licenses/by-sa/3.0/"><cc:permits
           rdf:resource="http://creativecommons.org/ns#Reproduction" /><cc:permits
           rdf:resource="http://creativecommons.org/ns#Distribution" /><cc:requires
           rdf:resource="http://creativecommons.org/ns#Notice" /><cc:requires
           rdf:resource="http://creativecommons.org/ns#Attribution" /><cc:permits
           rdf:resource="http://creativecommons.org/ns#DerivativeWorks" /><cc:requires
           rdf:resource="http://creativecommons.org/ns#ShareAlike" /></cc:License></rdf:RDF></metadata><g
     id="background"><rect
       fill="none"
       width="32"
       height="32"
       id="rect3062" /></g><path
     id="path3073"
     d="m 23,14 c -1.054,0 -2.061,0.19 -3,0.522 V 12 h -4 v 5.347 c -1.249,1.546 -2,3.511 -2,5.653 0,2.142 0.751,4.106 2,5.651 V 32 h 4 v -0.523 c 0.939,0.332 1.946,0.523 3,0.523 4.971,-0.002 8.998,-4.029 9,-9 -0.002,-4.973 -4.029,-9 -9,-9 z m 0,15.883 C 19.199,29.873 16.124,26.799 16.115,23 16.124,19.199 19.199,16.124 23,16.115 26.799,16.123 29.874,19.199 29.883,23 29.874,26.799 26.799,29.873 23,29.883 z M 28,24 v -2.002 h -1.663 c -0.063,-0.211 -0.145,-0.412 -0.245,-0.605 l 1.187,-1.188 -1.416,-1.414 -1.165,1.166 c -0.22,-0.123 -0.452,-0.221 -0.697,-0.295 V 18 h -2 v 1.662 c -0.229,0.068 -0.446,0.158 -0.652,0.27 l -1.141,-1.141 -1.415,1.416 1.14,1.139 C 19.821,21.553 19.731,21.77 19.662,22 H 18 v 2 h 1.662 c 0.073,0.246 0.172,0.479 0.295,0.697 l -1.165,1.164 1.413,1.416 1.188,-1.188 c 0.192,0.102 0.394,0.182 0.605,0.246 V 28 H 24 v -1.666 c 0.229,-0.068 0.445,-0.158 0.651,-0.27 l 1.212,1.213 1.414,-1.416 -1.212,-1.211 c 0.111,-0.205 0.201,-0.422 0.27,-0.65 H 28 z m -5.001,0.498 c -0.829,-0.002 -1.498,-0.67 -1.501,-1.5 0.003,-0.828 0.672,-1.498 1.501,-1.5 0.829,0.002 1.498,0.672 1.5,1.5 -0.002,0.83 -0.671,1.498 -1.5,1.5 z M 2,17.999 l 8,0 0,3.001 4,-4 -4,-4 0,3 -8,0 z M 26,8 2,8 l 0,2.001 24,0 L 26,13 30,9 26,5 z m -10,-8 4,0 0,6 -4,0 z" /></svg>