<?xml version="1.0" encoding="UTF-8" standalone="no"?>
<!-- Generator: Adobe Illustrator 16.0.1, SVG Export Plug-In . SVG Version: 6.00 Build 0)  -->

<svg
   xmlns:dc="http://purl.org/dc/elements/1.1/"
   xmlns:cc="http://creativecommons.org/ns#"
   xmlns:rdf="http://www.w3.org/1999/02/22-rdf-syntax-ns#"
   xmlns:svg="http://www.w3.org/2000/svg"
   xmlns="http://www.w3.org/2000/svg"
   xmlns:sodipodi="http://sodipodi.sourceforge.net/DTD/sodipodi-0.dtd"
   xmlns:inkscape="http://www.inkscape.org/namespaces/inkscape"
   version="1.1"
   x="0px"
   y="0px"
   width="32px"
   height="32px"
   viewBox="0 0 32 32"
   enable-background="new 0 0 32 32"
   xml:space="preserve"
   id="svg2"
   inkscape:version="0.48.4 r9939"
   sodipodi:docname="football.svg"><metadata
     id="metadata253"><rdf:RDF><cc:Work
         rdf:about=""><dc:format>image/svg+xml</dc:format><dc:type
           rdf:resource="http://purl.org/dc/dcmitype/StillImage" /></cc:Work></rdf:RDF></metadata><defs
     id="defs251" /><sodipodi:namedview
     pagecolor="#ffffff"
     bordercolor="#666666"
     borderopacity="1"
     objecttolerance="10"
     gridtolerance="10"
     guidetolerance="10"
     inkscape:pageopacity="0"
     inkscape:pageshadow="2"
     inkscape:window-width="640"
     inkscape:window-height="480"
     id="namedview249"
     showgrid="false"
     inkscape:zoom="7.375"
     inkscape:cx="16"
     inkscape:cy="16"
     inkscape:window-x="53"
     inkscape:window-y="31"
     inkscape:window-maximized="0"
     inkscape:current-layer="svg2" /><path
     id="path247"
     d="M 30,2 C 29.51,1.51 25.9,1.263 21.523,1.958 21.839,2.133 22.164,2.313 22.5,2.5 c 2.485,1.381 5.619,4.515 7,7 l 0.542,0.976 C 30.737,6.1 30.49,2.49 30,2 z M 18,4 16.646,3.097 C 13.479,4.097 10.347,5.653 8,8 5.654,10.346 4.097,13.479 3.098,16.646 3.388,17.081 3.689,17.533 4,18 c 2.209,3.313 6.687,7.791 10,10 l 1.354,0.902 C 18.521,27.903 21.653,26.347 24,24 26.347,21.653 27.903,18.521 28.902,15.354 28.612,14.918 28.311,14.466 28,14 25.791,10.687 21.313,6.209 18,4 z m 3.707,9.707 C 21.512,13.902 21.256,14 21,14 20.744,14 20.488,13.902 20.293,13.707 L 20,13.414 19.414,14 l 0.293,0.293 c 0.391,0.391 0.391,1.023 0,1.414 C 19.512,15.902 19.256,16 19,16 18.744,16 18.488,15.902 18.293,15.707 L 18,15.414 17.414,16 l 0.293,0.293 c 0.391,0.391 0.391,1.023 0,1.414 C 17.512,17.902 17.256,18 17,18 16.744,18 16.488,17.902 16.293,17.707 L 16,17.414 15.414,18 l 0.293,0.293 c 0.391,0.391 0.391,1.023 0,1.414 C 15.512,19.902 15.256,20 15,20 14.744,20 14.488,19.902 14.293,19.707 L 14,19.414 13.414,20 l 0.293,0.293 c 0.391,0.391 0.391,1.023 0,1.414 C 13.512,21.902 13.256,22 13,22 12.744,22 12.488,21.902 12.293,21.707 l -2,-2 c -0.391,-0.391 -0.391,-1.023 0,-1.414 0.391,-0.391 1.023,-0.391 1.414,0 L 12,18.586 12.586,18 12.293,17.707 c -0.391,-0.391 -0.391,-1.023 0,-1.414 0.391,-0.391 1.023,-0.391 1.414,0 L 14,16.586 14.586,16 14.293,15.707 c -0.391,-0.391 -0.391,-1.023 0,-1.414 0.391,-0.391 1.023,-0.391 1.414,0 L 16,14.586 16.586,14 16.293,13.707 c -0.391,-0.391 -0.391,-1.023 0,-1.414 0.391,-0.391 1.023,-0.391 1.414,0 L 18,12.586 18.586,12 18.293,11.707 c -0.391,-0.391 -0.391,-1.023 0,-1.414 0.391,-0.391 1.023,-0.391 1.414,0 l 2,2 c 0.391,0.391 0.391,1.023 0,1.414 z M 2.5,22.5 1.958,21.523 C 1.263,25.9 1.51,29.51 2,30 2.49,30.49 6.1,30.737 10.477,30.042 10.162,29.867 9.837,29.687 9.501,29.5 7.015,28.119 3.881,24.985 2.5,22.5 z"
     inkscape:connector-curvature="0" /></svg>