<?xml version="1.0" encoding="UTF-8" standalone="no"?>
<svg
   xmlns:dc="http://purl.org/dc/elements/1.1/"
   xmlns:cc="http://creativecommons.org/ns#"
   xmlns:rdf="http://www.w3.org/1999/02/22-rdf-syntax-ns#"
   xmlns:svg="http://www.w3.org/2000/svg"
   xmlns="http://www.w3.org/2000/svg"
   xmlns:sodipodi="http://sodipodi.sourceforge.net/DTD/sodipodi-0.dtd"
   xmlns:inkscape="http://www.inkscape.org/namespaces/inkscape"
   version="1.1"
   x="0px"
   y="0px"
   width="32px"
   height="32px"
   viewBox="0 0 32 32"
   enable-background="new 0 0 32 32"
   xml:space="preserve"
   id="svg2"
   inkscape:version="0.48.4 r9939"
   sodipodi:docname="group_half_edit.svg"><defs
     id="defs3449" /><sodipodi:namedview
     pagecolor="#ffffff"
     bordercolor="#666666"
     borderopacity="1"
     objecttolerance="10"
     gridtolerance="10"
     guidetolerance="10"
     inkscape:pageopacity="0"
     inkscape:pageshadow="2"
     inkscape:window-width="640"
     inkscape:window-height="480"
     id="namedview3447"
     showgrid="false"
     inkscape:zoom="7.375"
     inkscape:cx="16"
     inkscape:cy="16"
     inkscape:window-x="53"
     inkscape:window-y="24"
     inkscape:window-maximized="0"
     inkscape:current-layer="svg2" /><metadata
     id="metadata3435"><rdf:RDF><cc:Work
         rdf:about=""><dc:format>image/svg+xml</dc:format><dc:type
           rdf:resource="http://purl.org/dc/dcmitype/StillImage" /><dc:title>PICOL Icon</dc:title><dc:date>2009-03-15</dc:date><dc:creator><cc:Agent><dc:title>Melih Bilgil</dc:title></cc:Agent></dc:creator><dc:rights><cc:Agent><dc:title>Creative Commons BY-SA</dc:title></cc:Agent></dc:rights><dc:publisher><cc:Agent><dc:title>PICOL - Pictorial Communication Language</dc:title></cc:Agent></dc:publisher><dc:identifier>http://blog.picol.org</dc:identifier><dc:source>http://blog.picol.org</dc:source><dc:language>en</dc:language><dc:subject><rdf:Bag><rdf:li>PICOL</rdf:li><rdf:li>icon</rdf:li><rdf:li>icons</rdf:li><rdf:li>sign</rdf:li><rdf:li>GUI</rdf:li><rdf:li>vector</rdf:li><rdf:li>interface</rdf:li></rdf:Bag></dc:subject><dc:description>This is one icon out of all PICOL icons</dc:description><dc:contributor><cc:Agent><dc:title>Melih Bilgil (www.lonja.de), Christopher Adjei (www.boffer.net)</dc:title></cc:Agent></dc:contributor><cc:license
           rdf:resource="http://creativecommons.org/licenses/by-sa/3.0/" /></cc:Work><cc:License
         rdf:about="http://creativecommons.org/licenses/by-sa/3.0/"><cc:permits
           rdf:resource="http://creativecommons.org/ns#Reproduction" /><cc:permits
           rdf:resource="http://creativecommons.org/ns#Distribution" /><cc:requires
           rdf:resource="http://creativecommons.org/ns#Notice" /><cc:requires
           rdf:resource="http://creativecommons.org/ns#Attribution" /><cc:permits
           rdf:resource="http://creativecommons.org/ns#DerivativeWorks" /><cc:requires
           rdf:resource="http://creativecommons.org/ns#ShareAlike" /></cc:License></rdf:RDF></metadata><g
     id="background"><rect
       fill="none"
       width="32"
       height="32"
       id="rect3438" /></g><path
     id="rect3445"
     d="m 27.000366,19.999454 -4.999904,4.999905 -3.000226,-3.000226 4.999904,-4.999904 z M 18,22.999999 l 3,3 -3,0 z m -3,-10 c 1.657,0 3,-1.343 3,-3 1e-6,-1.657 -1.343,-3 -3,-3 -1.657,0 -3,1.343 -3,3 0,1.657 1.343001,3 3,3 z m 8,-6 c 1.657,0 3,-1.343 3,-3 0,-1.657 -1.343,-3 -3,-3 -1.657,0 -3,1.343 -3,2.999999 0,1.657001 1.343,3.000001 3,3.000001 z m -11.977,6 c -0.633,-0.838 -1.023,-1.869 -1.023,-3 10e-7,-0.343 0.035,-0.677 0.101,-1 -2.133,0 -7.101,0 -7.101,0 0,0 -2,0 -2,2 0,0.778 0,12 0,12 l 6,0 0,-6 c 0,-4 4,-4 4,-4 l 0.023,-2e-6 z m -4.022999,-6 c 1.656999,0 2.999999,-1.343 3,-3 -10e-7,-1.657 -1.343001,-3 -3.000001,-3 -1.657,0 -3,1.343 -3,3 0,1.657 1.343001,3 3.000001,3 z M 29,16.348999 l 0,-5.349 c 0,0 0,-2 -2,-2 l -7.101,0 c 0.066,0.323 0.101,0.657 0.101,1 0,1.131 -0.39,2.162 -1.022,3 l 0.022,3e-6 c 0.477,0 0.878,0.073 1.246,0.172999 -1.457,0.288 -2.787,0.928001 -3.898,1.827 -2.34,0 -5.348,0 -5.348,0 0,0 -2,0 -2,2 0,0.778 0,12 0,12 l 7.349,0 c 1.545,1.248 3.51,1.999 5.651,2 4.971,-0.002 8.998,-4.028999 9,-9 -0.001,-2.142 -0.752,-4.106 -2,-5.651 z m -7,12.534 c -3.801,-0.009 -6.876,-3.084 -6.884997,-6.883003 0.009,-3.801 3.084,-6.876 6.885,-6.885 3.799,0.009 6.874,3.084 6.883003,6.884997 -0.009,3.799 -3.084,6.874 -6.883,6.883 z"
     inkscape:connector-curvature="0" /></svg>