<?xml version="1.0" encoding="UTF-8" standalone="no"?>
<svg
   xmlns:dc="http://purl.org/dc/elements/1.1/"
   xmlns:cc="http://creativecommons.org/ns#"
   xmlns:rdf="http://www.w3.org/1999/02/22-rdf-syntax-ns#"
   xmlns:svg="http://www.w3.org/2000/svg"
   xmlns="http://www.w3.org/2000/svg"
   xmlns:sodipodi="http://sodipodi.sourceforge.net/DTD/sodipodi-0.dtd"
   xmlns:inkscape="http://www.inkscape.org/namespaces/inkscape"
   version="1.1"
   x="0px"
   y="0px"
   width="32px"
   height="32px"
   viewBox="0 0 32 32"
   enable-background="new 0 0 32 32"
   xml:space="preserve"
   id="svg2"
   inkscape:version="0.48.4 r9939"
   sodipodi:docname="group_full_edit.svg"><defs
     id="defs3348" /><sodipodi:namedview
     pagecolor="#ffffff"
     bordercolor="#666666"
     borderopacity="1"
     objecttolerance="10"
     gridtolerance="10"
     guidetolerance="10"
     inkscape:pageopacity="0"
     inkscape:pageshadow="2"
     inkscape:window-width="640"
     inkscape:window-height="480"
     id="namedview3346"
     showgrid="false"
     inkscape:zoom="7.375"
     inkscape:cx="16"
     inkscape:cy="16"
     inkscape:window-x="53"
     inkscape:window-y="31"
     inkscape:window-maximized="0"
     inkscape:current-layer="svg2" /><metadata
     id="metadata3334"><rdf:RDF><cc:Work
         rdf:about=""><dc:format>image/svg+xml</dc:format><dc:type
           rdf:resource="http://purl.org/dc/dcmitype/StillImage" /><dc:title>PICOL Icon</dc:title><dc:date>2009-03-15</dc:date><dc:creator><cc:Agent><dc:title>Melih Bilgil</dc:title></cc:Agent></dc:creator><dc:rights><cc:Agent><dc:title>Creative Commons BY-SA</dc:title></cc:Agent></dc:rights><dc:publisher><cc:Agent><dc:title>PICOL - Pictorial Communication Language</dc:title></cc:Agent></dc:publisher><dc:identifier>http://blog.picol.org</dc:identifier><dc:source>http://blog.picol.org</dc:source><dc:language>en</dc:language><dc:subject><rdf:Bag><rdf:li>PICOL</rdf:li><rdf:li>icon</rdf:li><rdf:li>icons</rdf:li><rdf:li>sign</rdf:li><rdf:li>GUI</rdf:li><rdf:li>vector</rdf:li><rdf:li>interface</rdf:li></rdf:Bag></dc:subject><dc:description>This is one icon out of all PICOL icons</dc:description><dc:contributor><cc:Agent><dc:title>Melih Bilgil (www.lonja.de), Christopher Adjei (www.boffer.net)</dc:title></cc:Agent></dc:contributor><cc:license
           rdf:resource="http://creativecommons.org/licenses/by-sa/3.0/" /></cc:Work><cc:License
         rdf:about="http://creativecommons.org/licenses/by-sa/3.0/"><cc:permits
           rdf:resource="http://creativecommons.org/ns#Reproduction" /><cc:permits
           rdf:resource="http://creativecommons.org/ns#Distribution" /><cc:requires
           rdf:resource="http://creativecommons.org/ns#Notice" /><cc:requires
           rdf:resource="http://creativecommons.org/ns#Attribution" /><cc:permits
           rdf:resource="http://creativecommons.org/ns#DerivativeWorks" /><cc:requires
           rdf:resource="http://creativecommons.org/ns#ShareAlike" /></cc:License></rdf:RDF></metadata><g
     id="background"><rect
       fill="none"
       width="32"
       height="32"
       id="rect3337" /></g><path
     id="rect3344"
     d="M 28.000366,20.999455 23.000462,25.99936 20.000236,22.999134 25.00014,17.99923 z M 19,24 l 3,3 -3,0 z M 22.381,7.52 c 0.064,0.03401 0.133001,0.067 0.192996,0.105004 0.426,0.231 0.906001,0.375 1.426001,0.374999 1.658,0 2.999999,-1.342999 2.999999,-2.999999 0,-1.657 -1.342,-3.000001 -3,-3.000001 -1.655999,1e-6 -3,1.343001 -2.999999,3 0,1.060001 0.552999,1.985 1.381,2.520001 z M 8,20.001 c 0,-2 0,-10 0,-10 C 8,10.001 8.005,9.551 8.238,9 6.159,9 4,9 4,9 4,9 2,9 2,11.001 l 0,7 c 0,2 2,2 2,2 l 0,10 6,0 0,-8 c 0,0 -2,0 -2,-2 z M 16,8 c 1.657,0 3,-1.343 3,-3 0,-1.657 -1.343,-3 -3,-3 -1.657,0 -3,1.343 -3,3 0,1.657 1.343,3 3,3 z M 8,8 C 8.52,8 9.001,7.856 9.427,7.624 9.486,7.588 9.552004,7.556 9.614997,7.520997 c 0.831,-0.533 1.384997,-1.459003 1.385001,-2.520999 -10e-7,-1.657 -1.343001,-3.000001 -3.000001,-3.000001 -1.657,0 -3,1.343 -3,3 0,1.657 1.343001,3 3.000001,3.000001 z m 22,9.351 c 0,-2.261 0,-6.35 0,-6.35 0,0 0,-2.000999 -2,-2.001 L 23.761999,9 C 23.996,9.551 24,10.001 24,10.001 c 0,0 0,1.888 0,4.059 -0.328,-0.036 -0.662,-0.059 -1,-0.059 -0.338,0 -0.67,0.022 -1,0.059 0,-1.632 0,-3.059 0,-3.059 0,0 0,-2.001 -2,-2.001 -0.5,0 -8,0 -8,0 0,0 -2,0 -2,2.001 l 0,7 c 0,2 2,2 2,2 l 0,10 5.35,0 C 18.895,31.249 20.859,32 23,32 c 4.971,0 9,-4.028 9,-8.999 0,-2.142 -0.752,-4.105 -2,-5.65 z M 23,30 c -3.865,-0.008 -6.994,-3.135 -7,-6.999 0.006,-3.865 3.135,-6.994 7,-7 3.865,0.006 6.992,3.135 7,7 -0.008,3.864 -3.135,6.991 -7,6.999 z"
     inkscape:connector-curvature="0" /></svg>