<?xml version="1.0" encoding="UTF-8" standalone="no"?>
<svg
   xmlns:dc="http://purl.org/dc/elements/1.1/"
   xmlns:cc="http://creativecommons.org/ns#"
   xmlns:rdf="http://www.w3.org/1999/02/22-rdf-syntax-ns#"
   xmlns:svg="http://www.w3.org/2000/svg"
   xmlns="http://www.w3.org/2000/svg"
   xmlns:sodipodi="http://sodipodi.sourceforge.net/DTD/sodipodi-0.dtd"
   xmlns:inkscape="http://www.inkscape.org/namespaces/inkscape"
   version="1.1"
   x="0px"
   y="0px"
   width="32px"
   height="32px"
   viewBox="0 0 32 32"
   enable-background="new 0 0 32 32"
   xml:space="preserve"
   id="svg2"
   inkscape:version="0.48.4 r9939"
   sodipodi:docname="group_full_add.svg"><defs
     id="defs3331" /><sodipodi:namedview
     pagecolor="#ffffff"
     bordercolor="#666666"
     borderopacity="1"
     objecttolerance="10"
     gridtolerance="10"
     guidetolerance="10"
     inkscape:pageopacity="0"
     inkscape:pageshadow="2"
     inkscape:window-width="640"
     inkscape:window-height="480"
     id="namedview3329"
     showgrid="false"
     inkscape:zoom="7.375"
     inkscape:cx="16"
     inkscape:cy="16"
     inkscape:window-x="53"
     inkscape:window-y="24"
     inkscape:window-maximized="0"
     inkscape:current-layer="svg2" /><metadata
     id="metadata3317"><rdf:RDF><cc:Work
         rdf:about=""><dc:format>image/svg+xml</dc:format><dc:type
           rdf:resource="http://purl.org/dc/dcmitype/StillImage" /><dc:title>PICOL Icon</dc:title><dc:date>2009-03-15</dc:date><dc:creator><cc:Agent><dc:title>Melih Bilgil</dc:title></cc:Agent></dc:creator><dc:rights><cc:Agent><dc:title>Creative Commons BY-SA</dc:title></cc:Agent></dc:rights><dc:publisher><cc:Agent><dc:title>PICOL - Pictorial Communication Language</dc:title></cc:Agent></dc:publisher><dc:identifier>http://blog.picol.org</dc:identifier><dc:source>http://blog.picol.org</dc:source><dc:language>en</dc:language><dc:subject><rdf:Bag><rdf:li>PICOL</rdf:li><rdf:li>icon</rdf:li><rdf:li>icons</rdf:li><rdf:li>sign</rdf:li><rdf:li>GUI</rdf:li><rdf:li>vector</rdf:li><rdf:li>interface</rdf:li></rdf:Bag></dc:subject><dc:description>This is one icon out of all PICOL icons</dc:description><dc:contributor><cc:Agent><dc:title>Melih Bilgil (www.lonja.de), Christopher Adjei (www.boffer.net)</dc:title></cc:Agent></dc:contributor><cc:license
           rdf:resource="http://creativecommons.org/licenses/by-sa/3.0/" /></cc:Work><cc:License
         rdf:about="http://creativecommons.org/licenses/by-sa/3.0/"><cc:permits
           rdf:resource="http://creativecommons.org/ns#Reproduction" /><cc:permits
           rdf:resource="http://creativecommons.org/ns#Distribution" /><cc:requires
           rdf:resource="http://creativecommons.org/ns#Notice" /><cc:requires
           rdf:resource="http://creativecommons.org/ns#Attribution" /><cc:permits
           rdf:resource="http://creativecommons.org/ns#DerivativeWorks" /><cc:requires
           rdf:resource="http://creativecommons.org/ns#ShareAlike" /></cc:License></rdf:RDF></metadata><g
     id="background"><rect
       fill="none"
       width="32"
       height="32"
       id="rect3320" /></g><path
     id="polygon3327"
     style=""
     d="m 22,22 -4,0 0,2 4,0 0,4 2.002,0 0,-4 3.998,0 0,-2 -3.998,0 0,-4 L 22,18 z M 22.381,7.52 c 0.064,0.034 0.133,0.067 0.193,0.105 C 23,7.856 23.48,8 24,8 25.658,8 27,6.657 27,5 27,3.343 25.658,2 24,2 c -1.656,0 -3,1.343 -3,3 0,1.06 0.553,1.985 1.381,2.52 z M 8,20.001 c 0,-2 0,-10 0,-10 C 8,10.001 8.005,9.551 8.238,9 6.159,9 4,9 4,9 4,9 2,9 2,11.001 v 7 c 0,2 2,2 2,2 v 10 h 6 v -8 c 0,0 -2,0 -2,-2 z M 16,8 c 1.657,0 3,-1.343 3,-3 0,-1.657 -1.343,-3 -3,-3 -1.657,0 -3,1.343 -3,3 0,1.657 1.343,3 3,3 z M 8,8 C 8.52,8 9.001,7.856 9.427,7.624 9.486,7.588 9.552,7.556 9.615,7.521 10.446,6.988 11,6.062 11,5 11,3.343 9.657,2 8,2 6.343,2 5,3.343 5,5 5,6.657 6.343,8 8,8 z m 22,9.351 c 0,-2.261 0,-6.35 0,-6.35 C 30,11.001 30,9 28,9 H 23.762 C 23.996,9.551 24,10.001 24,10.001 c 0,0 0,1.888 0,4.059 -0.328,-0.036 -0.662,-0.059 -1,-0.059 -0.338,0 -0.67,0.022 -1,0.059 0,-1.632 0,-3.059 0,-3.059 0,0 0,-2.001 -2,-2.001 -0.5,0 -8,0 -8,0 0,0 -2,0 -2,2.001 v 7 c 0,2 2,2 2,2 v 10 h 5.35 C 18.895,31.249 20.859,32 23,32 c 4.971,0 9,-4.028 9,-8.999 0,-2.142 -0.752,-4.105 -2,-5.65 z M 23,30 c -3.865,-0.008 -6.994,-3.135 -7,-6.999 0.006,-3.865 3.135,-6.994 7,-7 3.865,0.006 6.992,3.135 7,7 -0.008,3.864 -3.135,6.991 -7,6.999 z" /></svg>