<?xml version="1.0" encoding="UTF-8" standalone="no"?>
<svg
   xmlns:dc="http://purl.org/dc/elements/1.1/"
   xmlns:cc="http://creativecommons.org/ns#"
   xmlns:rdf="http://www.w3.org/1999/02/22-rdf-syntax-ns#"
   xmlns:svg="http://www.w3.org/2000/svg"
   xmlns="http://www.w3.org/2000/svg"
   xmlns:sodipodi="http://sodipodi.sourceforge.net/DTD/sodipodi-0.dtd"
   xmlns:inkscape="http://www.inkscape.org/namespaces/inkscape"
   version="1.1"
   x="0px"
   y="0px"
   width="32px"
   height="32px"
   viewBox="0 0 32 32"
   enable-background="new 0 0 32 32"
   xml:space="preserve"
   id="svg2"
   inkscape:version="0.91 r13725"
   sodipodi:docname="image_stop.svg"><defs
     id="defs3020" /><sodipodi:namedview
     pagecolor="#ffffff"
     bordercolor="#666666"
     borderopacity="1"
     objecttolerance="10"
     gridtolerance="10"
     guidetolerance="10"
     inkscape:pageopacity="0"
     inkscape:pageshadow="2"
     inkscape:window-width="928"
     inkscape:window-height="1028"
     id="namedview3018"
     showgrid="false"
     inkscape:zoom="14.75"
     inkscape:cx="16"
     inkscape:cy="13.288136"
     inkscape:window-x="992"
     inkscape:window-y="24"
     inkscape:window-maximized="0"
     inkscape:current-layer="svg2" /><metadata
     id="metadata3006"><rdf:RDF><cc:Work
         rdf:about=""><dc:format>image/svg+xml</dc:format><dc:type
           rdf:resource="http://purl.org/dc/dcmitype/StillImage" /><dc:title></dc:title><dc:date>2009-03-15</dc:date><dc:creator><cc:Agent><dc:title>Melih Bilgil</dc:title></cc:Agent></dc:creator><dc:rights><cc:Agent><dc:title>Creative Commons BY-SA</dc:title></cc:Agent></dc:rights><dc:publisher><cc:Agent><dc:title>PICOL - Pictorial Communication Language</dc:title></cc:Agent></dc:publisher><dc:identifier>http://blog.picol.org</dc:identifier><dc:source>http://blog.picol.org</dc:source><dc:language>en</dc:language><dc:subject><rdf:Bag><rdf:li>PICOL</rdf:li><rdf:li>icon</rdf:li><rdf:li>icons</rdf:li><rdf:li>sign</rdf:li><rdf:li>GUI</rdf:li><rdf:li>vector</rdf:li><rdf:li>interface</rdf:li></rdf:Bag></dc:subject><dc:description>This is one icon out of all PICOL icons</dc:description><dc:contributor><cc:Agent><dc:title>Melih Bilgil (www.lonja.de), Christopher Adjei (www.boffer.net)</dc:title></cc:Agent></dc:contributor><cc:license
           rdf:resource="http://creativecommons.org/licenses/by-sa/3.0/" /></cc:Work><cc:License
         rdf:about="http://creativecommons.org/licenses/by-sa/3.0/"><cc:permits
           rdf:resource="http://creativecommons.org/ns#Reproduction" /><cc:permits
           rdf:resource="http://creativecommons.org/ns#Distribution" /><cc:requires
           rdf:resource="http://creativecommons.org/ns#Notice" /><cc:requires
           rdf:resource="http://creativecommons.org/ns#Attribution" /><cc:permits
           rdf:resource="http://creativecommons.org/ns#DerivativeWorks" /><cc:requires
           rdf:resource="http://creativecommons.org/ns#ShareAlike" /></cc:License></rdf:RDF></metadata><rect
     style="fill:none"
     y="0"
     x="0"
     id="rect3009"
     height="32"
     width="32" /><path
     style=""
     d="M 11.998047 4 L 8 8 L 4 8 C 4 8 0 8 0 12 L 0 24 C 0 28 4 28 4 28 L 15.517578 28 C 17.131578 30.411 19.879 31.999 23 32 C 26.875 31.998 30.166547 29.545328 31.435547 26.111328 C 31.994547 25.075328 32 24 32 24 L 32 12 C 32 8 28 8 28 8 L 24 8 L 20 4 L 11.998047 4 z M 16 12 C 17.914 12 19.606078 12.908641 20.705078 14.306641 C 16.847078 15.321641 14 18.822 14 23 C 14 23.223 14.018203 23.441156 14.033203 23.660156 C 11.686203 22.847156 10 20.626 10 18 C 10 14.688 12.684 12 16 12 z M 23 16.115234 C 26.799 16.124234 29.873812 19.199 29.882812 23 C 29.873812 26.799 26.799 29.873812 23 29.882812 C 19.199 29.873812 16.124234 26.799 16.115234 23 C 16.124234 19.199 19.199 16.124234 23 16.115234 z M 23.880859 19.333984 C 23.879228 19.348266 23.878599 19.362659 23.876953 19.376953 C 23.895059 19.35493 23.915365 19.353365 23.935547 19.351562 C 23.916775 19.343874 23.900135 19.343354 23.880859 19.333984 z M 23.189453 19.837891 C 23.18611 19.839252 23.185062 19.840417 23.181641 19.841797 C 23.184235 19.845182 23.186902 19.848153 23.189453 19.851562 C 23.18938 19.847002 23.189517 19.842452 23.189453 19.837891 z M 24.001953 21.470703 C 24.00006 21.531935 23.998523 21.59322 23.998047 21.654297 C 23.999415 21.735519 23.997748 21.816984 23.998047 21.898438 L 24.001953 21.898438 L 24.001953 21.470703 z "
     id="polygon3016" /><path
     id="rect3176"
     d="m 20.254237,20.050847 6,0 0,6 -6,0 z m -6,3 c 0,-4.973 4.027,-9 9,-9 l 0,0 c 4.971,0 8.998,4.027 9,9 l 0,0 c -0.002,4.971 -4.029,8.998 -9,9 l 0,0 c -4.973,-0.002 -9,-4.029 -9,-9 l 0,0 z m 2.116,0 c 0.008,3.799 3.083,6.874 6.884,6.883 l 0,0 c 3.799,-0.009 6.874,-3.084 6.883,-6.883 l 0,0 c -0.009,-3.801 -3.084,-6.876 -6.883,-6.884 l 0,0 c -3.801,0.008 -6.876,3.083 -6.884,6.884 l 0,0 z"
     inkscape:connector-curvature="0"
     inkscape:transform-center-x="2.9830508"
     inkscape:transform-center-y="-0.94915254" /></svg>