<?xml version="1.0" encoding="UTF-8" standalone="no"?>
<svg
   xmlns:dc="http://purl.org/dc/elements/1.1/"
   xmlns:cc="http://creativecommons.org/ns#"
   xmlns:rdf="http://www.w3.org/1999/02/22-rdf-syntax-ns#"
   xmlns:svg="http://www.w3.org/2000/svg"
   xmlns="http://www.w3.org/2000/svg"
   xmlns:sodipodi="http://sodipodi.sourceforge.net/DTD/sodipodi-0.dtd"
   xmlns:inkscape="http://www.inkscape.org/namespaces/inkscape"
   version="1.1"
   x="0px"
   y="0px"
   width="32px"
   height="32px"
   viewBox="0 0 32 32"
   enable-background="new 0 0 32 32"
   xml:space="preserve"
   id="svg2"
   inkscape:version="0.48.4 r9939"
   sodipodi:docname="label_security.svg"><defs
     id="defs3120" /><sodipodi:namedview
     pagecolor="#ffffff"
     bordercolor="#666666"
     borderopacity="1"
     objecttolerance="10"
     gridtolerance="10"
     guidetolerance="10"
     inkscape:pageopacity="0"
     inkscape:pageshadow="2"
     inkscape:window-width="640"
     inkscape:window-height="480"
     id="namedview3118"
     showgrid="false"
     inkscape:zoom="7.375"
     inkscape:cx="16"
     inkscape:cy="16"
     inkscape:window-x="53"
     inkscape:window-y="24"
     inkscape:window-maximized="0"
     inkscape:current-layer="svg2" /><metadata
     id="metadata3108"><rdf:RDF><cc:Work
         rdf:about=""><dc:format>image/svg+xml</dc:format><dc:type
           rdf:resource="http://purl.org/dc/dcmitype/StillImage" /><dc:title>PICOL Icon</dc:title><dc:date>2009-03-15</dc:date><dc:creator><cc:Agent><dc:title>Melih Bilgil</dc:title></cc:Agent></dc:creator><dc:rights><cc:Agent><dc:title>Creative Commons BY-SA</dc:title></cc:Agent></dc:rights><dc:publisher><cc:Agent><dc:title>PICOL - Pictorial Communication Language</dc:title></cc:Agent></dc:publisher><dc:identifier>http://blog.picol.org</dc:identifier><dc:source>http://blog.picol.org</dc:source><dc:language>en</dc:language><dc:subject><rdf:Bag><rdf:li>PICOL</rdf:li><rdf:li>icon</rdf:li><rdf:li>icons</rdf:li><rdf:li>sign</rdf:li><rdf:li>GUI</rdf:li><rdf:li>vector</rdf:li><rdf:li>interface</rdf:li></rdf:Bag></dc:subject><dc:description>This is one icon out of all PICOL icons</dc:description><dc:contributor><cc:Agent><dc:title>Melih Bilgil (www.lonja.de), Christopher Adjei (www.boffer.net)</dc:title></cc:Agent></dc:contributor><cc:license
           rdf:resource="http://creativecommons.org/licenses/by-sa/3.0/" /></cc:Work><cc:License
         rdf:about="http://creativecommons.org/licenses/by-sa/3.0/"><cc:permits
           rdf:resource="http://creativecommons.org/ns#Reproduction" /><cc:permits
           rdf:resource="http://creativecommons.org/ns#Distribution" /><cc:requires
           rdf:resource="http://creativecommons.org/ns#Notice" /><cc:requires
           rdf:resource="http://creativecommons.org/ns#Attribution" /><cc:permits
           rdf:resource="http://creativecommons.org/ns#DerivativeWorks" /><cc:requires
           rdf:resource="http://creativecommons.org/ns#ShareAlike" /></cc:License></rdf:RDF></metadata><g
     id="background"><rect
       fill="none"
       width="32"
       height="32"
       id="rect3111" /></g><path
     id="path3116"
     d="m 26.144,22.001 c 0.008,-0.131 0.014,-0.267 0.014,-0.409 -0.006,-0.678 -0.088,-1.491 -0.556,-2.258 -0.457,-0.779 -1.438,-1.36 -2.602,-1.333 -1.165,-0.027 -2.148,0.554 -2.605,1.333 -0.47,0.767 -0.552,1.58 -0.556,2.258 0,0.143 0.006,0.278 0.014,0.409 H 19 V 27 h 8 v -4.999 h -0.856 z m -4.307,-0.409 c -0.004,-0.478 0.093,-0.958 0.254,-1.198 0.173,-0.227 0.27,-0.365 0.909,-0.393 0.637,0.027 0.73,0.164 0.904,0.393 0.162,0.24 0.259,0.723 0.253,1.198 0,0.145 -0.008,0.28 -0.019,0.409 H 21.856 C 21.846,21.87 21.837,21.733 21.837,21.592 z M 16,10 c 1.104,0 2,-0.896 2,-2 0,-1.104 -0.896,-2 -2,-2 -1.104,0 -2,0.896 -2,2 0,1.104 0.896,2 2,2 z m 12,5.518 V 8.45 L 16,0.814 4,8.452 V 32 h 24 v -1.518 c 2.411,-1.614 4,-4.361 4,-7.481 0,-3.121 -1.589,-5.869 -4,-7.483 z M 6,29.999 V 9.548 L 16,3.184 26,9.548 v 4.974 C 25.061,14.19 24.054,14 23,14 c -4.972,0 -9,4.028 -9,9.001 0,2.828 1.307,5.349 3.347,6.998 H 6 z M 23,30 c -3.865,-0.008 -6.995,-3.135 -7,-6.999 0.006,-3.866 3.135,-6.995 7,-7.001 3.864,0.006 6.991,3.135 6.999,7.001 C 29.991,26.865 26.864,29.992 23,30 z" /></svg>