<?xml version="1.0" encoding="UTF-8" standalone="no"?>
<svg
   xmlns:dc="http://purl.org/dc/elements/1.1/"
   xmlns:cc="http://creativecommons.org/ns#"
   xmlns:rdf="http://www.w3.org/1999/02/22-rdf-syntax-ns#"
   xmlns:svg="http://www.w3.org/2000/svg"
   xmlns="http://www.w3.org/2000/svg"
   xmlns:sodipodi="http://sodipodi.sourceforge.net/DTD/sodipodi-0.dtd"
   xmlns:inkscape="http://www.inkscape.org/namespaces/inkscape"
   version="1.1"
   x="0px"
   y="0px"
   width="32px"
   height="32px"
   viewBox="0 0 32 32"
   enable-background="new 0 0 32 32"
   xml:space="preserve"
   id="svg2"
   inkscape:version="0.48.4 r9939"
   sodipodi:docname="mailbox_settings.svg"><defs
     id="defs3170" /><sodipodi:namedview
     pagecolor="#ffffff"
     bordercolor="#666666"
     borderopacity="1"
     objecttolerance="10"
     gridtolerance="10"
     guidetolerance="10"
     inkscape:pageopacity="0"
     inkscape:pageshadow="2"
     inkscape:window-width="640"
     inkscape:window-height="480"
     id="namedview3168"
     showgrid="false"
     inkscape:zoom="7.375"
     inkscape:cx="16"
     inkscape:cy="16"
     inkscape:window-x="53"
     inkscape:window-y="24"
     inkscape:window-maximized="0"
     inkscape:current-layer="svg2" /><metadata
     id="metadata3158"><rdf:RDF><cc:Work
         rdf:about=""><dc:format>image/svg+xml</dc:format><dc:type
           rdf:resource="http://purl.org/dc/dcmitype/StillImage" /><dc:title>PICOL Icon</dc:title><dc:date>2009-03-15</dc:date><dc:creator><cc:Agent><dc:title>Melih Bilgil</dc:title></cc:Agent></dc:creator><dc:rights><cc:Agent><dc:title>Creative Commons BY-SA</dc:title></cc:Agent></dc:rights><dc:publisher><cc:Agent><dc:title>PICOL - Pictorial Communication Language</dc:title></cc:Agent></dc:publisher><dc:identifier>http://blog.picol.org</dc:identifier><dc:source>http://blog.picol.org</dc:source><dc:language>en</dc:language><dc:subject><rdf:Bag><rdf:li>PICOL</rdf:li><rdf:li>icon</rdf:li><rdf:li>icons</rdf:li><rdf:li>sign</rdf:li><rdf:li>GUI</rdf:li><rdf:li>vector</rdf:li><rdf:li>interface</rdf:li></rdf:Bag></dc:subject><dc:description>This is one icon out of all PICOL icons</dc:description><dc:contributor><cc:Agent><dc:title>Melih Bilgil (www.lonja.de), Christopher Adjei (www.boffer.net)</dc:title></cc:Agent></dc:contributor><cc:license
           rdf:resource="http://creativecommons.org/licenses/by-sa/3.0/" /></cc:Work><cc:License
         rdf:about="http://creativecommons.org/licenses/by-sa/3.0/"><cc:permits
           rdf:resource="http://creativecommons.org/ns#Reproduction" /><cc:permits
           rdf:resource="http://creativecommons.org/ns#Distribution" /><cc:requires
           rdf:resource="http://creativecommons.org/ns#Notice" /><cc:requires
           rdf:resource="http://creativecommons.org/ns#Attribution" /><cc:permits
           rdf:resource="http://creativecommons.org/ns#DerivativeWorks" /><cc:requires
           rdf:resource="http://creativecommons.org/ns#ShareAlike" /></cc:License></rdf:RDF></metadata><g
     id="background"><rect
       fill="none"
       width="32"
       height="32"
       id="rect3161" /></g><path
     id="path3166"
     d="m 28,24 v -2.001 h -1.663 c -0.063,-0.212 -0.145,-0.413 -0.245,-0.606 l 1.187,-1.187 -1.416,-1.415 -1.165,1.166 c -0.22,-0.123 -0.452,-0.221 -0.697,-0.294 V 18 h -2 v 1.662 c -0.229,0.068 -0.446,0.158 -0.652,0.27 l -1.141,-1.14 -1.415,1.415 1.14,1.14 C 19.821,21.554 19.731,21.771 19.662,22 H 18 v 2 h 1.662 c 0.073,0.246 0.172,0.479 0.295,0.698 l -1.165,1.163 1.413,1.416 1.188,-1.187 c 0.192,0.101 0.394,0.182 0.605,0.245 V 28 H 24 v -1.665 c 0.229,-0.068 0.445,-0.158 0.651,-0.27 l 1.212,1.212 1.414,-1.416 -1.212,-1.21 C 26.176,24.445 26.266,24.228 26.335,24 H 28 z m -5.001,0.499 c -0.829,-0.002 -1.498,-0.671 -1.501,-1.5 0.003,-0.829 0.672,-1.498 1.501,-1.501 0.829,0.003 1.498,0.672 1.5,1.501 -0.002,0.829 -0.671,1.498 -1.5,1.5 z M 30.482,18 C 29.413,16.402 27.842,15.175 26,14.523 V 4 H 6 v 16 h 8.522 C 14.19,20.939 14,21.946 14,23 c 0,0.338 0.022,0.671 0.059,1 H 4 V 18 H 0 v 10 h 15.518 c 1.614,2.411 4.361,3.999 7.482,4 3.12,-0.001 5.867,-1.589 7.481,-4 H 32 V 18 H 30.482 z M 22,6 16,11.44 10,6 H 22 z M 8,18 V 7.081 L 16,14 24,7 v 7.059 C 23.671,14.022 23.338,14 23,14 c -3.122,0 -5.869,1.588 -7.483,4 H 8 z M 23,29.883 C 19.199,29.874 16.124,26.799 16.116,23 16.124,19.199 19.199,16.124 23,16.116 26.799,16.124 29.874,19.199 29.883,23 29.874,26.799 26.799,29.874 23,29.883 z" /></svg>