<?xml version="1.0" encoding="UTF-8" standalone="no"?>
<svg
   xmlns:dc="http://purl.org/dc/elements/1.1/"
   xmlns:cc="http://creativecommons.org/ns#"
   xmlns:rdf="http://www.w3.org/1999/02/22-rdf-syntax-ns#"
   xmlns:svg="http://www.w3.org/2000/svg"
   xmlns="http://www.w3.org/2000/svg"
   xmlns:sodipodi="http://sodipodi.sourceforge.net/DTD/sodipodi-0.dtd"
   xmlns:inkscape="http://www.inkscape.org/namespaces/inkscape"
   version="1.1"
   x="0px"
   y="0px"
   width="32px"
   height="32px"
   viewBox="0 0 32 32"
   enable-background="new 0 0 32 32"
   xml:space="preserve"
   id="svg2"
   inkscape:version="0.48.4 r9939"
   sodipodi:docname="network_wireless_add.svg"><defs
     id="defs3120" /><sodipodi:namedview
     pagecolor="#ffffff"
     bordercolor="#666666"
     borderopacity="1"
     objecttolerance="10"
     gridtolerance="10"
     guidetolerance="10"
     inkscape:pageopacity="0"
     inkscape:pageshadow="2"
     inkscape:window-width="640"
     inkscape:window-height="480"
     id="namedview3118"
     showgrid="false"
     inkscape:zoom="7.375"
     inkscape:cx="16"
     inkscape:cy="16"
     inkscape:window-x="53"
     inkscape:window-y="24"
     inkscape:window-maximized="0"
     inkscape:current-layer="svg2" /><metadata
     id="metadata3106"><rdf:RDF><cc:Work
         rdf:about=""><dc:format>image/svg+xml</dc:format><dc:type
           rdf:resource="http://purl.org/dc/dcmitype/StillImage" /><dc:title>PICOL Icon</dc:title><dc:date>2009-03-15</dc:date><dc:creator><cc:Agent><dc:title>Melih Bilgil</dc:title></cc:Agent></dc:creator><dc:rights><cc:Agent><dc:title>Creative Commons BY-SA</dc:title></cc:Agent></dc:rights><dc:publisher><cc:Agent><dc:title>PICOL - Pictorial Communication Language</dc:title></cc:Agent></dc:publisher><dc:identifier>http://blog.picol.org</dc:identifier><dc:source>http://blog.picol.org</dc:source><dc:language>en</dc:language><dc:subject><rdf:Bag><rdf:li>PICOL</rdf:li><rdf:li>icon</rdf:li><rdf:li>icons</rdf:li><rdf:li>sign</rdf:li><rdf:li>GUI</rdf:li><rdf:li>vector</rdf:li><rdf:li>interface</rdf:li></rdf:Bag></dc:subject><dc:description>This is one icon out of all PICOL icons</dc:description><dc:contributor><cc:Agent><dc:title>Melih Bilgil (www.lonja.de), Christopher Adjei (www.boffer.net)</dc:title></cc:Agent></dc:contributor><cc:license
           rdf:resource="http://creativecommons.org/licenses/by-sa/3.0/" /></cc:Work><cc:License
         rdf:about="http://creativecommons.org/licenses/by-sa/3.0/"><cc:permits
           rdf:resource="http://creativecommons.org/ns#Reproduction" /><cc:permits
           rdf:resource="http://creativecommons.org/ns#Distribution" /><cc:requires
           rdf:resource="http://creativecommons.org/ns#Notice" /><cc:requires
           rdf:resource="http://creativecommons.org/ns#Attribution" /><cc:permits
           rdf:resource="http://creativecommons.org/ns#DerivativeWorks" /><cc:requires
           rdf:resource="http://creativecommons.org/ns#ShareAlike" /></cc:License></rdf:RDF></metadata><g
     id="background"><rect
       fill="none"
       width="32"
       height="32"
       id="rect3109" /></g><path
     id="polygon3116"
     style=""
     d="m 22,22 -4,0 0,2 4,0 0,4 2,0 0,-4 4,0 0,-2 -4,0 0,-4 -2,0 z m 7.967,-4.695 C 29.8,13.445 28.261,9.633 25.314,6.686 22.189,3.562 18.095,2 14,2 v 2 c 3.568,0.012 7.133,1.422 9.855,4.144 2.044,2.044 3.335,4.563 3.862,7.202 C 27.005,14.907 26.231,14.564 25.405,14.335 24.842,12.57 23.876,10.904 22.484,9.514 20.153,7.182 17.055,6.011 14,6 v 2 c 2.543,0.011 5.13,0.987 7.071,2.929 0.908,0.908 1.601,1.958 2.085,3.079 C 23.104,14.007 23.053,14 23,14 22.322,14 21.665,14.081 21.03,14.223 20.672,13.546 20.22,12.908 19.656,12.343 18.105,10.792 16.031,10.011 14,10 v 2 c 1.52,0.011 3.082,0.597 4.242,1.757 0.345,0.345 0.631,0.729 0.872,1.134 -0.496,0.238 -0.966,0.518 -1.406,0.839 C 17.232,14.709 16.202,14 15,14 c -1.656,0 -3,1.343 -3,3 0,1.304 0.838,2.403 2,2.817 v 6.367 c -0.098,0.035 -0.193,0.072 -0.286,0.116 L 5.7,18.286 C 5.887,17.896 6,17.463 6,17 6,15.343 4.657,14 3,14 c -1.657,0 -3,1.343 -3,3 0,1.305 0.837,2.403 2,2.816 v 6.367 C 0.837,26.597 0,27.695 0,29 0,30.657 1.343,32 3,32 4.657,32 6,30.657 6,29 6,27.695 5.163,26.597 4,26.184 V 19.817 C 4.098,19.782 4.193,19.745 4.285,19.701 L 12.3,27.716 C 12.113,28.105 12,28.538 12,29 c 0,1.657 1.344,3 3,3 1.202,0 2.232,-0.709 2.708,-1.731 1.486,1.083 3.312,1.73 5.292,1.731 4.971,-0.002 8.998,-4.029 9,-9 -0.001,-2.162 -0.764,-4.145 -2.033,-5.695 z M 23,29.883 C 19.199,29.874 16.124,26.799 16.116,23 16.124,19.199 19.199,16.124 23,16.116 26.799,16.124 29.874,19.199 29.883,23 29.874,26.799 26.799,29.874 23,29.883 z" /></svg>