<?xml version="1.0" encoding="UTF-8" standalone="no"?>
<svg
   xmlns:dc="http://purl.org/dc/elements/1.1/"
   xmlns:cc="http://creativecommons.org/ns#"
   xmlns:rdf="http://www.w3.org/1999/02/22-rdf-syntax-ns#"
   xmlns:svg="http://www.w3.org/2000/svg"
   xmlns="http://www.w3.org/2000/svg"
   xmlns:sodipodi="http://sodipodi.sourceforge.net/DTD/sodipodi-0.dtd"
   xmlns:inkscape="http://www.inkscape.org/namespaces/inkscape"
   version="1.1"
   x="0px"
   y="0px"
   width="32px"
   height="32px"
   viewBox="0 0 32 32"
   enable-background="new 0 0 32 32"
   xml:space="preserve"
   id="svg2"
   inkscape:version="0.48.4 r9939"
   sodipodi:docname="network_sans_edit.svg"><defs
     id="defs3056" /><sodipodi:namedview
     pagecolor="#ffffff"
     bordercolor="#666666"
     borderopacity="1"
     objecttolerance="10"
     gridtolerance="10"
     guidetolerance="10"
     inkscape:pageopacity="0"
     inkscape:pageshadow="2"
     inkscape:window-width="640"
     inkscape:window-height="480"
     id="namedview3054"
     showgrid="false"
     inkscape:zoom="7.375"
     inkscape:cx="16"
     inkscape:cy="16"
     inkscape:window-x="107"
     inkscape:window-y="361"
     inkscape:window-maximized="0"
     inkscape:current-layer="svg2" /><metadata
     id="metadata3042"><rdf:RDF><cc:Work
         rdf:about=""><dc:format>image/svg+xml</dc:format><dc:type
           rdf:resource="http://purl.org/dc/dcmitype/StillImage" /><dc:title>PICOL Icon</dc:title><dc:date>2009-03-15</dc:date><dc:creator><cc:Agent><dc:title>Melih Bilgil</dc:title></cc:Agent></dc:creator><dc:rights><cc:Agent><dc:title>Creative Commons BY-SA</dc:title></cc:Agent></dc:rights><dc:publisher><cc:Agent><dc:title>PICOL - Pictorial Communication Language</dc:title></cc:Agent></dc:publisher><dc:identifier>http://blog.picol.org</dc:identifier><dc:source>http://blog.picol.org</dc:source><dc:language>en</dc:language><dc:subject><rdf:Bag><rdf:li>PICOL</rdf:li><rdf:li>icon</rdf:li><rdf:li>icons</rdf:li><rdf:li>sign</rdf:li><rdf:li>GUI</rdf:li><rdf:li>vector</rdf:li><rdf:li>interface</rdf:li></rdf:Bag></dc:subject><dc:description>This is one icon out of all PICOL icons</dc:description><dc:contributor><cc:Agent><dc:title>Melih Bilgil (www.lonja.de), Christopher Adjei (www.boffer.net)</dc:title></cc:Agent></dc:contributor><cc:license
           rdf:resource="http://creativecommons.org/licenses/by-sa/3.0/" /></cc:Work><cc:License
         rdf:about="http://creativecommons.org/licenses/by-sa/3.0/"><cc:permits
           rdf:resource="http://creativecommons.org/ns#Reproduction" /><cc:permits
           rdf:resource="http://creativecommons.org/ns#Distribution" /><cc:requires
           rdf:resource="http://creativecommons.org/ns#Notice" /><cc:requires
           rdf:resource="http://creativecommons.org/ns#Attribution" /><cc:permits
           rdf:resource="http://creativecommons.org/ns#DerivativeWorks" /><cc:requires
           rdf:resource="http://creativecommons.org/ns#ShareAlike" /></cc:License></rdf:RDF></metadata><g
     id="background"><rect
       fill="none"
       width="32"
       height="32"
       id="rect3045" /></g><path
     id="rect3052"
     d="M 28.000366,20.999455 23.000462,25.99936 20.000236,22.999134 25.00014,17.99923 z M 19,24 l 3,3 -3,0 z m 7,-9.477 0,-2.624 C 28.281,11.436 30,9.4189997 30,7.0000001 30,4.238 27.761,2 25,2 22.239,2 20,4.238 20,6.9999999 20,9.4189997 21.719,11.436 24,11.899 l 0,2.159 C 23.671,14.022 23.338,14 23,14 c -2.126,0 -4.075,0.74 -5.615,1.972 L 11.169,9.7549998 C 11.691,8.9640003 12,8.0190003 12,7.0000002 12,4.2380001 9.761,2.0000001 7,2 4.239,2 2,4.2380001 2,7 2,9.419 3.7179999,11.436 5.9999998,11.899 L 6,20.1 c -2.282,0.463 -4.0000001,2.480001 -4.0000001,4.9 0,2.763 2.2389999,5 5.0000001,5 2.7610003,0 5,-2.237 5,-5 0,-2.42 -1.718,-4.437 -3.9999998,-4.899 L 8,11.9 C 8.6379999,11.77 9.2289998,11.517 9.7539998,11.17 L 15.971,17.387 C 14.74,18.925 14,20.874 14,23 c 0,4.971 4.027,8.998 9,9 4.971,-0.002 8.998,-4.029 9,-9 -0.002,-3.919 -2.507,-7.241 -6,-8.477 z m -3,15.36 c -3.801,-0.009 -6.876,-3.084 -6.884997,-6.883003 0.009,-3.801 3.084,-6.876 6.885,-6.884 3.799,0.008 6.874,3.083 6.883,6.884 -0.009,3.799 -3.084,6.874 -6.883,6.883 z"
     inkscape:connector-curvature="0" /></svg>