<?xml version="1.0" encoding="UTF-8" standalone="no"?>
<svg
   xmlns:dc="http://purl.org/dc/elements/1.1/"
   xmlns:cc="http://creativecommons.org/ns#"
   xmlns:rdf="http://www.w3.org/1999/02/22-rdf-syntax-ns#"
   xmlns:svg="http://www.w3.org/2000/svg"
   xmlns="http://www.w3.org/2000/svg"
   xmlns:sodipodi="http://sodipodi.sourceforge.net/DTD/sodipodi-0.dtd"
   xmlns:inkscape="http://www.inkscape.org/namespaces/inkscape"
   version="1.1"
   x="0px"
   y="0px"
   width="32px"
   height="32px"
   viewBox="0 0 32 32"
   enable-background="new 0 0 32 32"
   xml:space="preserve"
   id="svg2"
   inkscape:version="0.48.4 r9939"
   sodipodi:docname="network_sans_security.svg"><defs
     id="defs3088" /><sodipodi:namedview
     pagecolor="#ffffff"
     bordercolor="#666666"
     borderopacity="1"
     objecttolerance="10"
     gridtolerance="10"
     guidetolerance="10"
     inkscape:pageopacity="0"
     inkscape:pageshadow="2"
     inkscape:window-width="640"
     inkscape:window-height="480"
     id="namedview3086"
     showgrid="false"
     inkscape:zoom="7.375"
     inkscape:cx="16"
     inkscape:cy="16"
     inkscape:window-x="53"
     inkscape:window-y="24"
     inkscape:window-maximized="0"
     inkscape:current-layer="svg2" /><metadata
     id="metadata3076"><rdf:RDF><cc:Work
         rdf:about=""><dc:format>image/svg+xml</dc:format><dc:type
           rdf:resource="http://purl.org/dc/dcmitype/StillImage" /><dc:title>PICOL Icon</dc:title><dc:date>2009-03-15</dc:date><dc:creator><cc:Agent><dc:title>Melih Bilgil</dc:title></cc:Agent></dc:creator><dc:rights><cc:Agent><dc:title>Creative Commons BY-SA</dc:title></cc:Agent></dc:rights><dc:publisher><cc:Agent><dc:title>PICOL - Pictorial Communication Language</dc:title></cc:Agent></dc:publisher><dc:identifier>http://blog.picol.org</dc:identifier><dc:source>http://blog.picol.org</dc:source><dc:language>en</dc:language><dc:subject><rdf:Bag><rdf:li>PICOL</rdf:li><rdf:li>icon</rdf:li><rdf:li>icons</rdf:li><rdf:li>sign</rdf:li><rdf:li>GUI</rdf:li><rdf:li>vector</rdf:li><rdf:li>interface</rdf:li></rdf:Bag></dc:subject><dc:description>This is one icon out of all PICOL icons</dc:description><dc:contributor><cc:Agent><dc:title>Melih Bilgil (www.lonja.de), Christopher Adjei (www.boffer.net)</dc:title></cc:Agent></dc:contributor><cc:license
           rdf:resource="http://creativecommons.org/licenses/by-sa/3.0/" /></cc:Work><cc:License
         rdf:about="http://creativecommons.org/licenses/by-sa/3.0/"><cc:permits
           rdf:resource="http://creativecommons.org/ns#Reproduction" /><cc:permits
           rdf:resource="http://creativecommons.org/ns#Distribution" /><cc:requires
           rdf:resource="http://creativecommons.org/ns#Notice" /><cc:requires
           rdf:resource="http://creativecommons.org/ns#Attribution" /><cc:permits
           rdf:resource="http://creativecommons.org/ns#DerivativeWorks" /><cc:requires
           rdf:resource="http://creativecommons.org/ns#ShareAlike" /></cc:License></rdf:RDF></metadata><g
     id="background"><rect
       fill="none"
       width="32"
       height="32"
       id="rect3079" /></g><path
     id="path3084"
     d="m 26.144,22.001 c 0.008,-0.131 0.014,-0.267 0.014,-0.409 -0.006,-0.678 -0.088,-1.491 -0.556,-2.258 -0.457,-0.779 -1.438,-1.36 -2.602,-1.333 -1.165,-0.027 -2.148,0.554 -2.605,1.333 -0.47,0.767 -0.552,1.58 -0.556,2.258 0,0.143 0.006,0.278 0.014,0.409 H 19 V 27 h 8 v -4.999 h -0.856 z m -4.307,-0.409 c -0.004,-0.478 0.093,-0.958 0.254,-1.198 0.173,-0.226 0.27,-0.365 0.909,-0.393 0.637,0.027 0.73,0.165 0.904,0.393 0.162,0.24 0.259,0.723 0.253,1.198 0,0.145 -0.008,0.28 -0.019,0.409 H 21.856 C 21.846,21.87 21.837,21.733 21.837,21.592 z M 26,14.523 V 11.899 C 28.281,11.436 30,9.419 30,7 30,4.238 27.761,2 25,2 c -2.761,0 -5,2.238 -5,5 0,2.419 1.719,4.436 4,4.899 v 2.159 C 23.671,14.022 23.338,14 23,14 c -2.126,0 -4.075,0.74 -5.615,1.972 L 11.169,9.755 C 11.691,8.964 12,8.019 12,7 12,4.238 9.761,2 7,2 4.239,2 2,4.238 2,7 2,9.419 3.718,11.436 6,11.899 V 20.1 c -2.282,0.463 -4,2.48 -4,4.9 0,2.763 2.239,5 5,5 2.761,0 5,-2.237 5,-5 0,-2.42 -1.718,-4.437 -4,-4.899 V 11.9 c 0.638,-0.13 1.229,-0.383 1.754,-0.73 l 6.217,6.217 C 14.74,18.925 14,20.874 14,23 c 0,4.971 4.027,8.998 9,9 4.971,-0.002 8.998,-4.029 9,-9 -0.002,-3.919 -2.507,-7.241 -6,-8.477 z m -3,15.36 C 19.199,29.874 16.124,26.799 16.115,23 16.124,19.199 19.199,16.124 23,16.116 26.799,16.124 29.874,19.199 29.883,23 29.874,26.799 26.799,29.874 23,29.883 z" /></svg>