<?xml version="1.0" encoding="UTF-8" standalone="no"?>
<svg
   xmlns:dc="http://purl.org/dc/elements/1.1/"
   xmlns:cc="http://creativecommons.org/ns#"
   xmlns:rdf="http://www.w3.org/1999/02/22-rdf-syntax-ns#"
   xmlns:svg="http://www.w3.org/2000/svg"
   xmlns="http://www.w3.org/2000/svg"
   xmlns:sodipodi="http://sodipodi.sourceforge.net/DTD/sodipodi-0.dtd"
   xmlns:inkscape="http://www.inkscape.org/namespaces/inkscape"
   version="1.1"
   x="0px"
   y="0px"
   width="32px"
   height="32px"
   viewBox="0 0 32 32"
   enable-background="new 0 0 32 32"
   xml:space="preserve"
   id="svg2"
   inkscape:version="0.48.4 r9939"
   sodipodi:docname="owl_lite.svg"><defs
     id="defs3061" /><sodipodi:namedview
     pagecolor="#ffffff"
     bordercolor="#666666"
     borderopacity="1"
     objecttolerance="10"
     gridtolerance="10"
     guidetolerance="10"
     inkscape:pageopacity="0"
     inkscape:pageshadow="2"
     inkscape:window-width="640"
     inkscape:window-height="480"
     id="namedview3059"
     showgrid="false"
     inkscape:zoom="7.375"
     inkscape:cx="16"
     inkscape:cy="16"
     inkscape:window-x="53"
     inkscape:window-y="24"
     inkscape:window-maximized="0"
     inkscape:current-layer="svg2" /><metadata
     id="metadata3051"><rdf:RDF><cc:Work
         rdf:about=""><dc:format>image/svg+xml</dc:format><dc:type
           rdf:resource="http://purl.org/dc/dcmitype/StillImage" /><dc:title>PICOL Icon</dc:title><dc:date>2009-03-15</dc:date><dc:creator><cc:Agent><dc:title>Melih Bilgil</dc:title></cc:Agent></dc:creator><dc:rights><cc:Agent><dc:title>Creative Commons BY-SA</dc:title></cc:Agent></dc:rights><dc:publisher><cc:Agent><dc:title>PICOL - Pictorial Communication Language</dc:title></cc:Agent></dc:publisher><dc:identifier>http://blog.picol.org</dc:identifier><dc:source>http://blog.picol.org</dc:source><dc:language>en</dc:language><dc:subject><rdf:Bag><rdf:li>PICOL</rdf:li><rdf:li>icon</rdf:li><rdf:li>icons</rdf:li><rdf:li>sign</rdf:li><rdf:li>GUI</rdf:li><rdf:li>vector</rdf:li><rdf:li>interface</rdf:li></rdf:Bag></dc:subject><dc:description>This is one icon out of all PICOL icons</dc:description><dc:contributor><cc:Agent><dc:title>Melih Bilgil (www.lonja.de), Christopher Adjei (www.boffer.net)</dc:title></cc:Agent></dc:contributor><cc:license
           rdf:resource="http://creativecommons.org/licenses/by-sa/3.0/" /></cc:Work><cc:License
         rdf:about="http://creativecommons.org/licenses/by-sa/3.0/"><cc:permits
           rdf:resource="http://creativecommons.org/ns#Reproduction" /><cc:permits
           rdf:resource="http://creativecommons.org/ns#Distribution" /><cc:requires
           rdf:resource="http://creativecommons.org/ns#Notice" /><cc:requires
           rdf:resource="http://creativecommons.org/ns#Attribution" /><cc:permits
           rdf:resource="http://creativecommons.org/ns#DerivativeWorks" /><cc:requires
           rdf:resource="http://creativecommons.org/ns#ShareAlike" /></cc:License></rdf:RDF></metadata><g
     id="background"><rect
       fill="none"
       width="32"
       height="32"
       id="rect3054" /></g><path
     id="path3057"
     d="M 27.999,20.35 V 11.652 C 30.327,10.827 31.998,8.612 32,6 31.998,2.686 29.312,0.002 26.001,0 22.685,0 20.002,2.688 20,6 c 0,0.25 0.021,0.495 0.05,0.737 l -9.891,4.945 C 9.08,10.644 7.617,10.001 6.001,10 2.685,10 0.002,12.688 0,16 c 0.002,3.314 2.685,6 6.001,6 1.617,0 3.082,-0.644 4.161,-1.685 l 9.889,4.944 C 20.021,25.503 20,25.749 20,26 c 0.002,3.314 2.685,6 6.001,6 3.312,0 5.997,-2.686 5.999,-6 -0.002,-2.612 -1.673,-4.826 -4.001,-5.65 z M 26.001,2 c 2.206,0.004 3.993,1.792 3.997,4 -0.004,2.208 -1.791,3.996 -3.997,4 C 23.789,9.996 22.005,8.21 22.002,6 22.005,3.792 23.789,2.004 26.001,2 z m -20,18 C 3.789,19.996 2.005,18.21 2.002,16 c 0.003,-2.208 1.787,-3.996 3.999,-4 2.206,0.004 3.993,1.792 3.997,4 -0.004,2.208 -1.791,3.996 -3.997,4 z m 20,10 c -2.212,-0.004 -3.996,-1.79 -3.999,-4 0.003,-2.208 1.787,-3.996 3.999,-4 2.206,0.004 3.993,1.792 3.997,4 -0.004,2.208 -1.791,3.996 -3.997,4 z" /></svg>