<?xml version="1.0" encoding="UTF-8" standalone="no"?>
<svg
   xmlns:dc="http://purl.org/dc/elements/1.1/"
   xmlns:cc="http://creativecommons.org/ns#"
   xmlns:rdf="http://www.w3.org/1999/02/22-rdf-syntax-ns#"
   xmlns:svg="http://www.w3.org/2000/svg"
   xmlns="http://www.w3.org/2000/svg"
   xmlns:sodipodi="http://sodipodi.sourceforge.net/DTD/sodipodi-0.dtd"
   xmlns:inkscape="http://www.inkscape.org/namespaces/inkscape"
   version="1.1"
   x="0px"
   y="0px"
   width="32px"
   height="32px"
   viewBox="0 0 32 32"
   enable-background="new 0 0 32 32"
   xml:space="preserve"
   id="svg2"
   inkscape:version="0.48.4 r9939"
   sodipodi:docname="phone_on.svg"><defs
     id="defs3037" /><sodipodi:namedview
     pagecolor="#ffffff"
     bordercolor="#666666"
     borderopacity="1"
     objecttolerance="10"
     gridtolerance="10"
     guidetolerance="10"
     inkscape:pageopacity="0"
     inkscape:pageshadow="2"
     inkscape:window-width="640"
     inkscape:window-height="480"
     id="namedview3035"
     showgrid="false"
     inkscape:zoom="7.375"
     inkscape:cx="16"
     inkscape:cy="16"
     inkscape:window-x="53"
     inkscape:window-y="24"
     inkscape:window-maximized="0"
     inkscape:current-layer="svg2" /><metadata
     id="metadata3023"><rdf:RDF><cc:Work
         rdf:about=""><dc:format>image/svg+xml</dc:format><dc:type
           rdf:resource="http://purl.org/dc/dcmitype/StillImage" /><dc:title>PICOL Icon</dc:title><dc:date>2009-03-15</dc:date><dc:creator><cc:Agent><dc:title>Melih Bilgil</dc:title></cc:Agent></dc:creator><dc:rights><cc:Agent><dc:title>Creative Commons BY-SA</dc:title></cc:Agent></dc:rights><dc:publisher><cc:Agent><dc:title>PICOL - Pictorial Communication Language</dc:title></cc:Agent></dc:publisher><dc:identifier>http://blog.picol.org</dc:identifier><dc:source>http://blog.picol.org</dc:source><dc:language>en</dc:language><dc:subject><rdf:Bag><rdf:li>PICOL</rdf:li><rdf:li>icon</rdf:li><rdf:li>icons</rdf:li><rdf:li>sign</rdf:li><rdf:li>GUI</rdf:li><rdf:li>vector</rdf:li><rdf:li>interface</rdf:li></rdf:Bag></dc:subject><dc:description>This is one icon out of all PICOL icons</dc:description><dc:contributor><cc:Agent><dc:title>Melih Bilgil (www.lonja.de), Christopher Adjei (www.boffer.net)</dc:title></cc:Agent></dc:contributor><cc:license
           rdf:resource="http://creativecommons.org/licenses/by-sa/3.0/" /></cc:Work><cc:License
         rdf:about="http://creativecommons.org/licenses/by-sa/3.0/"><cc:permits
           rdf:resource="http://creativecommons.org/ns#Reproduction" /><cc:permits
           rdf:resource="http://creativecommons.org/ns#Distribution" /><cc:requires
           rdf:resource="http://creativecommons.org/ns#Notice" /><cc:requires
           rdf:resource="http://creativecommons.org/ns#Attribution" /><cc:permits
           rdf:resource="http://creativecommons.org/ns#DerivativeWorks" /><cc:requires
           rdf:resource="http://creativecommons.org/ns#ShareAlike" /></cc:License></rdf:RDF></metadata><g
     id="background"><rect
       fill="none"
       width="32"
       height="32"
       id="rect3026" /></g><path
     id="path3033"
     d="M 27.205,0 25.726,1.535 C 28.298,4.219 29.89,7.917 29.89,12 c 0,4.084 -1.592,7.781 -4.164,10.467 L 27.205,24 C 30.168,20.929 32,16.686 32,12 32,7.314 30.168,3.071 27.205,0 z m -2.865,3.034 -1.446,1.5 c 1.832,1.918 2.966,4.554 2.966,7.466 0,2.912 -1.135,5.548 -2.967,7.466 l 1.446,1.5 C 26.542,18.664 27.906,15.498 27.906,12 27.906,8.502 26.543,5.335 24.34,3.034 z M 21.446,6.035 20,7.536 c 1.092,1.147 1.768,2.725 1.768,4.464 0,1.739 -0.676,3.316 -1.768,4.465 l 1.446,1.5 c 1.463,-1.534 2.367,-3.639 2.367,-5.966 0,-2.327 -0.904,-4.432 -2.367,-5.964 z M 2,2 V 30 H 18 V 2 H 2 z M 7,26 H 5 v -2 h 2 v 2 z M 7,22 H 5 v -2 h 2 v 2 z M 7,18 H 5 v -2 h 2 v 2 z m 4,8 H 9 v -2 h 2 v 2 z M 9,22 v -2 h 1.999 v 2 H 9 z m 2,-4 H 9 v -2 h 2 v 2 z m 4,8 h -2 v -2 h 2 v 2 z m 0,-4 h -2 v -2 h 2 v 2 z m 0,-4 h -2 v -2 h 2 v 2 z m 0,-6 H 5 V 6 h 10 v 6 z" /></svg>