<?xml version="1.0" encoding="UTF-8" standalone="no"?>
<!-- Generator: Adobe Illustrator 14.0.0, SVG Export Plug-In . SVG Version: 6.00 Build 43363)  -->

<svg
   xmlns:dc="http://purl.org/dc/elements/1.1/"
   xmlns:cc="http://creativecommons.org/ns#"
   xmlns:rdf="http://www.w3.org/1999/02/22-rdf-syntax-ns#"
   xmlns:svg="http://www.w3.org/2000/svg"
   xmlns="http://www.w3.org/2000/svg"
   xmlns:sodipodi="http://sodipodi.sourceforge.net/DTD/sodipodi-0.dtd"
   xmlns:inkscape="http://www.inkscape.org/namespaces/inkscape"
   version="1.1"
   x="0px"
   y="0px"
   width="32px"
   height="32px"
   viewBox="0 0 32 32"
   enable-background="new 0 0 32 32"
   xml:space="preserve"
   id="svg2"
   inkscape:version="0.48.4 r9939"
   sodipodi:docname="soccer.svg"><metadata
     id="metadata257"><rdf:RDF><cc:Work
         rdf:about=""><dc:format>image/svg+xml</dc:format><dc:type
           rdf:resource="http://purl.org/dc/dcmitype/StillImage" /></cc:Work></rdf:RDF></metadata><defs
     id="defs255" /><sodipodi:namedview
     pagecolor="#ffffff"
     bordercolor="#666666"
     borderopacity="1"
     objecttolerance="10"
     gridtolerance="10"
     guidetolerance="10"
     inkscape:pageopacity="0"
     inkscape:pageshadow="2"
     inkscape:window-width="640"
     inkscape:window-height="480"
     id="namedview253"
     showgrid="false"
     inkscape:zoom="7.375"
     inkscape:cx="16"
     inkscape:cy="16"
     inkscape:window-x="53"
     inkscape:window-y="31"
     inkscape:window-maximized="0"
     inkscape:current-layer="svg2" /><g
     id="vuvuzela" /><path
     id="polygon251"
     d="m 11,16 -5,1 -1,5 5,3 4,-4 z m 15,1 -5,-1 -3,5 4,4 5,-3 z M 13,12 19,12 21,7 16,4.009 11,7 z M 16,0 C 7.178,0 0,7.178 0,16 0,24.822 7.178,32 16,32 24.822,32 32,24.822 32,16 32,7.178 24.822,0 16,0 z M 20.312,29.312 19,28 h -6 l -1.313,1.312 C 6.073,27.489 2,22.215 2,16 2,15.188 2.084,14.397 2.218,13.623 L 5,13 7,9 6.054,6.162 C 8.593,3.595 12.113,2 16,2 c 3.887,0 7.407,1.595 9.946,4.162 L 25,9 l 2,4 2.782,0.623 C 29.916,14.397 30,15.188 30,16 c 0,6.215 -4.073,11.489 -9.688,13.312 z"
     inkscape:connector-curvature="0" /></svg>