<?xml version="1.0" encoding="UTF-8" standalone="no"?>
<svg
   xmlns:dc="http://purl.org/dc/elements/1.1/"
   xmlns:cc="http://creativecommons.org/ns#"
   xmlns:rdf="http://www.w3.org/1999/02/22-rdf-syntax-ns#"
   xmlns:svg="http://www.w3.org/2000/svg"
   xmlns="http://www.w3.org/2000/svg"
   xmlns:sodipodi="http://sodipodi.sourceforge.net/DTD/sodipodi-0.dtd"
   xmlns:inkscape="http://www.inkscape.org/namespaces/inkscape"
   version="1.1"
   x="0px"
   y="0px"
   width="32px"
   height="32px"
   viewBox="0 0 32 32"
   enable-background="new 0 0 32 32"
   xml:space="preserve"
   id="svg2"
   inkscape:version="0.48.4 r9939"
   sodipodi:docname="upload_security.svg"><defs
     id="defs3065" /><sodipodi:namedview
     pagecolor="#ffffff"
     bordercolor="#666666"
     borderopacity="1"
     objecttolerance="10"
     gridtolerance="10"
     guidetolerance="10"
     inkscape:pageopacity="0"
     inkscape:pageshadow="2"
     inkscape:window-width="640"
     inkscape:window-height="480"
     id="namedview3063"
     showgrid="false"
     inkscape:zoom="7.375"
     inkscape:cx="16"
     inkscape:cy="16"
     inkscape:window-x="53"
     inkscape:window-y="24"
     inkscape:window-maximized="0"
     inkscape:current-layer="svg2" /><metadata
     id="metadata3053"><rdf:RDF><cc:Work
         rdf:about=""><dc:format>image/svg+xml</dc:format><dc:type
           rdf:resource="http://purl.org/dc/dcmitype/StillImage" /><dc:title>PICOL Icon</dc:title><dc:date>2009-03-15</dc:date><dc:creator><cc:Agent><dc:title>Melih Bilgil</dc:title></cc:Agent></dc:creator><dc:rights><cc:Agent><dc:title>Creative Commons BY-SA</dc:title></cc:Agent></dc:rights><dc:publisher><cc:Agent><dc:title>PICOL - Pictorial Communication Language</dc:title></cc:Agent></dc:publisher><dc:identifier>http://blog.picol.org</dc:identifier><dc:source>http://blog.picol.org</dc:source><dc:language>en</dc:language><dc:subject><rdf:Bag><rdf:li>PICOL</rdf:li><rdf:li>icon</rdf:li><rdf:li>icons</rdf:li><rdf:li>sign</rdf:li><rdf:li>GUI</rdf:li><rdf:li>vector</rdf:li><rdf:li>interface</rdf:li></rdf:Bag></dc:subject><dc:description>This is one icon out of all PICOL icons</dc:description><dc:contributor><cc:Agent><dc:title>Melih Bilgil (www.lonja.de), Christopher Adjei (www.boffer.net)</dc:title></cc:Agent></dc:contributor><cc:license
           rdf:resource="http://creativecommons.org/licenses/by-sa/3.0/" /></cc:Work><cc:License
         rdf:about="http://creativecommons.org/licenses/by-sa/3.0/"><cc:permits
           rdf:resource="http://creativecommons.org/ns#Reproduction" /><cc:permits
           rdf:resource="http://creativecommons.org/ns#Distribution" /><cc:requires
           rdf:resource="http://creativecommons.org/ns#Notice" /><cc:requires
           rdf:resource="http://creativecommons.org/ns#Attribution" /><cc:permits
           rdf:resource="http://creativecommons.org/ns#DerivativeWorks" /><cc:requires
           rdf:resource="http://creativecommons.org/ns#ShareAlike" /></cc:License></rdf:RDF></metadata><g
     id="background"><rect
       fill="none"
       width="32"
       height="32"
       id="rect3056" /></g><path
     id="path3061"
     d="m 26.144,22 c 0.008,-0.131 0.014,-0.267 0.014,-0.409 -0.006,-0.678 -0.088,-1.492 -0.556,-2.259 -0.457,-0.779 -1.438,-1.36 -2.602,-1.333 -1.165,-0.027 -2.148,0.554 -2.605,1.333 -0.47,0.767 -0.552,1.581 -0.556,2.259 0,0.143 0.006,0.278 0.014,0.409 H 19 v 5 h 8 v -5 h -0.856 z m -4.307,-0.409 c -0.004,-0.478 0.093,-0.958 0.254,-1.198 0.173,-0.227 0.27,-0.366 0.909,-0.394 0.637,0.027 0.73,0.165 0.904,0.394 0.162,0.24 0.259,0.723 0.253,1.198 0,0.145 -0.008,0.28 -0.019,0.409 h -2.282 c -0.01,-0.131 -0.019,-0.268 -0.019,-0.409 z M 14.001,14 h 4 V 8 h 4 l -6,-6 -6,6 h 4 v 6 z m 9,0 c -3.121,0 -5.869,1.588 -7.483,4 H 2 v 8 h 12.523 c 1.237,3.493 4.559,5.999 8.477,5.999 4.972,0 9,-4.028 9,-8.999 0,-4.972 -4.028,-9 -8.999,-9 z M 8,24 H 4 v -2 h 4 v 2 z m 15.001,5.999 c -3.865,-0.008 -6.994,-3.135 -7,-6.999 0.006,-3.865 3.135,-6.994 7,-7 3.864,0.006 6.991,3.135 6.999,7 -0.008,3.864 -3.135,6.991 -6.999,6.999 z" /></svg>