<?xml version="1.0" encoding="UTF-8" standalone="no"?>
<svg
   xmlns:dc="http://purl.org/dc/elements/1.1/"
   xmlns:cc="http://creativecommons.org/ns#"
   xmlns:rdf="http://www.w3.org/1999/02/22-rdf-syntax-ns#"
   xmlns:svg="http://www.w3.org/2000/svg"
   xmlns="http://www.w3.org/2000/svg"
   xmlns:sodipodi="http://sodipodi.sourceforge.net/DTD/sodipodi-0.dtd"
   xmlns:inkscape="http://www.inkscape.org/namespaces/inkscape"
   version="1.1"
   x="0px"
   y="0px"
   width="32px"
   height="32px"
   viewBox="0 0 32 32"
   enable-background="new 0 0 32 32"
   xml:space="preserve"
   id="svg2"
   inkscape:version="0.48.4 r9939"
   sodipodi:docname="user_profile_add.svg"
   inkscape:export-filename="/home/alessandro/[ Appunti lavoro ]/[ icone ]/BW/PICOL/picol_prerelease_svg_090316/user_profile_add.png"
   inkscape:export-xdpi="90"
   inkscape:export-ydpi="90"><defs
     id="defs3171" /><sodipodi:namedview
     pagecolor="#ffffff"
     bordercolor="#666666"
     borderopacity="1"
     objecttolerance="10"
     gridtolerance="10"
     guidetolerance="10"
     inkscape:pageopacity="0"
     inkscape:pageshadow="2"
     inkscape:window-width="1867"
     inkscape:window-height="1056"
     id="namedview3169"
     showgrid="false"
     inkscape:zoom="8.03125"
     inkscape:cx="-1.3696498"
     inkscape:cy="16"
     inkscape:window-x="53"
     inkscape:window-y="24"
     inkscape:window-maximized="1"
     inkscape:current-layer="svg2" /><metadata
     id="metadata3157"><rdf:RDF><cc:Work
         rdf:about=""><dc:format>image/svg+xml</dc:format><dc:type
           rdf:resource="http://purl.org/dc/dcmitype/StillImage" /><dc:title /><dc:date>2009-03-15</dc:date><dc:creator><cc:Agent><dc:title>Melih Bilgil</dc:title></cc:Agent></dc:creator><dc:rights><cc:Agent><dc:title>Creative Commons BY-SA</dc:title></cc:Agent></dc:rights><dc:publisher><cc:Agent><dc:title>PICOL - Pictorial Communication Language</dc:title></cc:Agent></dc:publisher><dc:identifier>http://blog.picol.org</dc:identifier><dc:source>http://blog.picol.org</dc:source><dc:language>en</dc:language><dc:subject><rdf:Bag><rdf:li>PICOL</rdf:li><rdf:li>icon</rdf:li><rdf:li>icons</rdf:li><rdf:li>sign</rdf:li><rdf:li>GUI</rdf:li><rdf:li>vector</rdf:li><rdf:li>interface</rdf:li></rdf:Bag></dc:subject><dc:description>This is one icon out of all PICOL icons</dc:description><dc:contributor><cc:Agent><dc:title>Melih Bilgil (www.lonja.de), Christopher Adjei (www.boffer.net)</dc:title></cc:Agent></dc:contributor><cc:license
           rdf:resource="http://creativecommons.org/licenses/by-sa/3.0/" /></cc:Work><cc:License
         rdf:about="http://creativecommons.org/licenses/by-sa/3.0/"><cc:permits
           rdf:resource="http://creativecommons.org/ns#Reproduction" /><cc:permits
           rdf:resource="http://creativecommons.org/ns#Distribution" /><cc:requires
           rdf:resource="http://creativecommons.org/ns#Notice" /><cc:requires
           rdf:resource="http://creativecommons.org/ns#Attribution" /><cc:permits
           rdf:resource="http://creativecommons.org/ns#DerivativeWorks" /><cc:requires
           rdf:resource="http://creativecommons.org/ns#ShareAlike" /></cc:License></rdf:RDF></metadata><g
     id="background"><rect
       fill="none"
       width="32"
       height="32"
       id="rect3160" /></g><path
     id="polygon3182"
     style=""
     d="m 22,27 -4,-4 2,-2 2,2 4,-4 2,2 z m -9.999,-9 c 2.209,0 4,-1.791 4,-4 0,-2.209 -1.791,-4 -4,-4 -2.209,0 -4,1.791 -4,4 0,2.209 1.791,4 4,4 z m 12,-3.941 V 5.584 L 18.415,0 H 0.001 v 32 h 24 V 31.94 C 28.5,31.442 32,27.633 32,23 32,18.367 28.5,14.557 24.001,14.059 z M 17.999,2.413 21.587,6 H 17.999 V 2.413 z M 2.001,30 V 1.998 h 14 v 6.001 h 6 v 6.06 c -3.477,0.385 -6.348,2.75 -7.477,5.941 -3.562,0 -8.523,0 -8.523,0 0,0 -2,0 -2,2 0,1 0,6 0,6 h 11.518 c 0.506,0.756 1.125,1.43 1.832,2 H 2.001 z m 21,-0.001 c -3.865,-0.008 -6.994,-3.135 -7,-6.999 0.006,-3.865 3.135,-6.994 7,-7 3.864,0.006 6.991,3.135 6.999,7 -0.008,3.864 -3.135,6.991 -6.999,6.999 z" /><g
     id="g3188"
     transform="translate(-24.59144,1.1828794)"><g
       id="g3206"
       transform="translate(24.59144,-1.1828794)" /></g></svg>